<?xml version="1.0" standalone="no"?>
<!DOCTYPE svg PUBLIC "-//W3C//DTD SVG 1.1//EN" "http://www.w3.org/Graphics/SVG/1.1/DTD/svg11.dtd" >
<svg>
<metadata>
Created by FontForge 20120731 at Wed Sep 25 23:48:38 2019
 By www-data
Copyright (c) 1997-2009 Adobe Systems Incorporated. All Rights Reserved.
</metadata>
<defs>
<font id="KozukaMinchoProBBold" horiz-adv-x="627" >
  <font-face 
    font-family="Kozuka Mincho Pro B"
    font-weight="500"
    font-stretch="normal"
    units-per-em="1000"
    panose-1="0 0 0 0 0 0 0 0 0 0"
    ascent="880"
    descent="-120"
    x-height="505"
    cap-height="746"
    bbox="-119 -270 980 967"
    underline-thickness="50"
    underline-position="-100"
    unicode-range="U+0020-0237"
  />
<missing-glyph horiz-adv-x="964" 
d="M0 0v700h432v-700h-432zM50 650v-600h332v600h-332z" />
    <glyph glyph-name=".notdef" horiz-adv-x="964" 
d="M0 0v700h432v-700h-432zM50 650v-600h332v600h-332z" />
    <glyph glyph-name=".notdef" horiz-adv-x="964" 
d="M0 0v700h432v-700h-432zM50 650v-600h332v600h-332z" />
    <glyph glyph-name=".null" horiz-adv-x="0" 
 />
    <glyph glyph-name="nonmarkingreturn" horiz-adv-x="333" 
 />
    <glyph glyph-name="space" unicode=" " horiz-adv-x="266" 
 />
    <glyph glyph-name="exclam" unicode="!" horiz-adv-x="296" 
d="M169 181h-42q-8 118 -25.5 295t-17.5 244q0 24 13.5 32.5t50.5 8.5q38 0 51.5 -8.5t13.5 -32.5q0 -68 -18 -246.5t-26 -292.5zM148 120q28 0 46.5 -20t18.5 -46q0 -27 -19 -46.5t-46 -19.5t-46 19.5t-19 46.5t19 46.5t46 19.5z" />
    <glyph glyph-name="quotedbl" unicode="&#x22;" horiz-adv-x="377" 
d="M128 492h-38q-3 40 -14.5 125t-11.5 104q0 40 45 40t45 -40q0 -16 -4.5 -54t-11.5 -90t-10 -85zM287 492h-38q-3 40 -14.5 125t-11.5 104q0 40 45 40q46 0 46 -40q0 -18 -12 -103.5t-15 -125.5z" />
    <glyph glyph-name="numbersign" unicode="#" 
d="M551 252h-130l-36 -252h-63l37 252h-118l-36 -252h-62l36 252h-131l6 53h132l19 132h-132l7 53h132l35 243h62l-35 -243h119l34 243h62l-34 -243h130l-8 -53h-130l-19 -132h130zM248 305h118l19 132h-118z" />
    <glyph glyph-name="dollar" unicode="$" 
d="M333 778v-68q78 0 136 -39.5t58 -90.5q0 -52 -41 -52q-40 0 -57 53q-29 86 -96 86v-247q7 -4 20.5 -10t18.5 -9q88 -46 129 -93t41 -115q0 -85 -64.5 -133t-144.5 -50v-84h-48v84q-91 0 -149.5 42.5t-58.5 95.5q0 52 43 52q26 0 42 -30q35 -68 57 -91.5t66 -25.5v276
q-8 5 -55 31q-26 16 -41 27t-41.5 35.5t-40 57.5t-13.5 72q0 70 54.5 113.5t136.5 43.5v69h48zM285 443v223q-33 0 -66.5 -22t-33.5 -71q0 -29 16 -55t34 -40.5t50 -34.5zM333 304v-251q52 6 80.5 39t28.5 75q0 34 -18.5 62t-39 43t-51.5 32z" />
    <glyph glyph-name="percent" unicode="%" horiz-adv-x="748" 
d="M183 708q-41 0 -58 -38.5t-17 -119.5q0 -76 15.5 -117.5t59.5 -41.5q74 0 74 159q0 80 -16 119t-58 39zM555 742h60l-427 -755h-60zM561 338q-75 0 -75 -159q0 -34 2.5 -58t10 -49t23.5 -38t40 -13q74 0 74 158q0 72 -15.5 115.5t-59.5 43.5zM183 358q-159 0 -159 191
q0 193 160 193q81 0 120.5 -50t39.5 -141q0 -98 -43 -145.5t-118 -47.5zM561 -13q-159 0 -159 192q0 89 38.5 141t121.5 52q159 0 159 -192q0 -193 -160 -193z" />
    <glyph glyph-name="ampersand" unicode="&#x26;" horiz-adv-x="763" 
d="M707 394v-36q-34 1 -50.5 -11.5t-29.5 -54.5q-21 -105 -89 -182q35 -38 58.5 -54t48.5 -16q32 0 59 25l23 -28q-43 -50 -114 -50q-75 0 -143 62q-69 -63 -173 -63q-108 0 -168.5 52t-60.5 135q0 42 12.5 75.5t37.5 58.5t47.5 40t56.5 33q-66 111 -66 175q0 69 48 113.5
t133 44.5q82 0 128 -39.5t46 -94.5q0 -61 -40.5 -106.5t-131.5 -90.5q79 -125 168 -236q67 80 67 174q0 22 -13 30t-43 8v36h189zM339 672q-34 0 -60 -24t-26 -73q0 -61 55 -147q42 23 75.5 62.5t33.5 93.5q0 39 -22.5 63.5t-55.5 24.5zM181 180q0 -75 40.5 -111t91.5 -36
q62 0 114 50q-78 90 -171 239q-75 -62 -75 -142z" />
    <glyph glyph-name="quotesingle" unicode="'" horiz-adv-x="217" 
d="M128 492h-38q-3 40 -14.5 125t-11.5 104q0 40 45 40t45 -40q0 -16 -4.5 -54t-11.5 -90t-10 -85z" />
    <glyph glyph-name="parenleft" unicode="(" horiz-adv-x="324" 
d="M334 -166l-17 -28q-87 52 -143 151q-78 138 -78 351q0 209 74 344q48 92 146 155l18 -28q-134 -127 -134 -471q1 -191 35.5 -301.5t98.5 -172.5z" />
    <glyph glyph-name="parenright" unicode=")" horiz-adv-x="324" 
d="M-10 779l18 28q99 -65 146 -154q74 -136 74 -343q0 -106 -19 -197t-70 -175t-131 -132l-18 28q64 62 98.5 172t35.5 302q0 190 -35 300.5t-99 170.5z" />
    <glyph glyph-name="asterisk" unicode="*" horiz-adv-x="432" 
d="M361 459l-127 88l12 -154h-59l12 155l-128 -89l-30 52l140 67l-139 65l30 53l127 -88l-12 153h59l-12 -153l126 87l30 -52l-139 -65l139 -66z" />
    <glyph glyph-name="plus" unicode="+" horiz-adv-x="519" 
d="M229 493h61v-196h195v-61h-195v-209h-61v209h-195v61h195v196z" />
    <glyph glyph-name="comma" unicode="," horiz-adv-x="222" 
d="M77 -132l-20 26q63 49 65 109q-7 -12 -28 -12q-19 0 -33 16t-14 43t19 45.5t46 18.5q31 0 48 -22t17 -56q0 -108 -100 -168z" />
    <glyph glyph-name="hyphen" unicode="-" horiz-adv-x="289" 
d="M36 221v58h218v-58h-218z" />
    <glyph glyph-name="period" unicode="." horiz-adv-x="222" 
d="M111 120q28 0 46 -19.5t18 -46.5t-18.5 -46.5t-45.5 -19.5t-45.5 19.5t-18.5 46.5t18.5 46.5t45.5 19.5z" />
    <glyph glyph-name="slash" unicode="/" horiz-adv-x="410" 
d="M333 778h64l-311 -791h-64z" />
    <glyph glyph-name="zero" unicode="0" 
d="M313 -15q-114 0 -185 76q-85 91 -85 306q0 220 93 310q72 65 177 65q108 0 178 -65q94 -91 94 -310q0 -214 -86 -306q-70 -76 -186 -76zM313 697q-57 0 -92 -42q-56 -73 -56 -289q0 -206 49 -283q37 -54 99 -54t99 54q48 75 48 283q0 213 -55 289q-35 42 -92 42z" />
    <glyph glyph-name="one" unicode="1" 
d="M261 124v439q0 34 -5.5 48.5t-20.5 14.5q-13 0 -70 -19l-7 40q127 44 206 90l15 -8v-605q0 -57 14.5 -70.5t80.5 -13.5v-40h-314v40q70 0 85.5 13.5t15.5 70.5z" />
    <glyph glyph-name="two" unicode="2" 
d="M515 182l46 -6l-32 -176h-451l-17 17q16 76 42.5 136.5t63.5 105t68 72t76 60.5q61 44 89.5 83.5t28.5 93.5q0 63 -33 95.5t-90 32.5q-96 0 -127 -110q-14 -46 -58 -46q-19 0 -30.5 13.5t-11.5 38.5q0 54 62 102t170 48q123 0 183 -53.5t60 -130.5q0 -97 -104 -177
q-32 -25 -93.5 -66.5t-87.5 -60.5q-91 -70 -123 -172h266q52 0 69 17.5t34 82.5z" />
    <glyph glyph-name="three" unicode="3" 
d="M353 398v-3q92 -6 155 -55.5t63 -137.5q0 -40 -15 -77t-45.5 -69.5t-84.5 -51.5t-124 -19q-114 0 -178 49t-64 104q0 53 46 53q28 0 47 -28q1 -2 16.5 -27.5t27.5 -40.5q40 -64 107 -64q58 0 100.5 39.5t42.5 127.5q0 49 -19.5 84.5t-53.5 53.5t-70.5 26t-78.5 8v43
q86 3 141 41t55 114q0 55 -31.5 91.5t-88.5 36.5q-43 0 -73.5 -26t-44.5 -69q-12 -32 -25 -46t-40 -14q-42 0 -42 53t65 100.5t165 47.5q69 0 118.5 -17.5t73 -46.5t33.5 -56.5t10 -57.5q0 -59 -43.5 -106.5t-144.5 -59.5z" />
    <glyph glyph-name="four" unicode="4" 
d="M351 124v74h-298v38l318 502h100v-486h90l-7 -54h-83v-74q0 -56 12 -70t65 -14v-40h-285v40q61 0 74.5 14.5t13.5 69.5zM353 619h-4q-4 -7 -22 -39.5t-33 -54.5l-169 -273h226v274q0 31 2 93z" />
    <glyph glyph-name="five" unicode="5" 
d="M150 354l-45 12l50 363h274q33 0 42.5 3t15.5 14h41l-27 -100h-298l-34 -211l2 -1q57 45 147 45q116 0 175.5 -65t59.5 -168q0 -132 -73 -196.5t-188 -64.5q-94 0 -159.5 46.5t-65.5 102.5q0 27 14 41t34 14q32 0 50 -35q18 -44 52 -88q30 -35 79 -35q65 0 101 60
q31 57 31 148q0 192 -136 192q-88 0 -142 -77z" />
    <glyph glyph-name="six" unicode="6" 
d="M177 371l3 -1q26 41 70 66t100 25q107 0 167 -64.5t60 -159.5q0 -113 -65.5 -182.5t-191.5 -69.5q-122 0 -193.5 90.5t-71.5 277.5q0 57 7.5 109.5t27.5 104.5t50.5 90t80 61.5t112.5 23.5q92 0 151 -42t59 -98q0 -21 -11.5 -35.5t-31.5 -14.5q-24 0 -37.5 13.5
t-27.5 46.5q-31 84 -106 84q-43 0 -74.5 -30t-47.5 -80.5t-23 -103.5t-7 -111zM453 231q0 23 -5 49t-17.5 58t-41 53t-68.5 21q-59 0 -99 -46t-40 -107q0 -95 36 -162t101 -67q63 0 98.5 54.5t35.5 146.5z" />
    <glyph glyph-name="seven" unicode="7" 
d="M119 553h-50l34 176h461l13 -24q-133 -173 -194 -381q-54 -165 -57 -334h-131q2 87 24.5 178t52 160.5t69 137.5t67.5 107.5t55 72.5h-236q-56 0 -74 -15.5t-34 -77.5z" />
    <glyph glyph-name="eight" unicode="8" 
d="M407 407v-2q73 -32 123 -87t50 -120q0 -90 -66.5 -151.5t-202.5 -61.5q-117 0 -189 53t-72 147q0 114 160 183v3q-137 70 -137 192q0 80 64.5 129.5t176.5 49.5q110 0 175.5 -45.5t65.5 -126.5q0 -110 -148 -163zM312 696q-64 0 -95.5 -33t-31.5 -79q0 -96 154 -152
q31 15 50.5 29t36.5 43.5t17 68.5q0 9 -1 19.5t-8.5 30.5t-20 35t-39 26.5t-62.5 11.5zM311 31q61 0 102 36.5t41 101.5q0 103 -180 169q-110 -49 -110 -155q0 -72 41 -112t106 -40z" />
    <glyph glyph-name="nine" unicode="9" 
d="M451 357h-4q-58 -91 -170 -91q-104 0 -166 63.5t-62 166.5q0 106 65 176t193 70q117 0 191.5 -88.5t74.5 -264.5q0 -195 -71.5 -299.5t-210.5 -104.5q-104 0 -162.5 45t-58.5 97q0 22 11.5 36t31.5 14q25 0 37.5 -12.5t28.5 -46.5q10 -24 19.5 -40t34.5 -31.5t59 -15.5
q35 0 63 17t44.5 47.5t27.5 63.5t16 73.5t6.5 68t1.5 56.5zM173 499q0 -20 3.5 -43t15 -58.5t41 -58.5t73.5 -23q59 0 99 46t40 110q0 92 -36.5 158.5t-100.5 66.5q-69 0 -102 -59t-33 -139z" />
    <glyph glyph-name="colon" unicode=":" horiz-adv-x="222" 
d="M111 516q28 0 46 -19t18 -46t-18.5 -46.5t-45.5 -19.5t-45.5 19.5t-18.5 46.5t18.5 46t45.5 19zM112 120q28 0 46 -19.5t18 -46.5t-18.5 -46.5t-45.5 -19.5t-45.5 19.5t-18.5 46.5t18.5 46.5t45.5 19.5z" />
    <glyph glyph-name="semicolon" unicode=";" horiz-adv-x="222" 
d="M112 516q28 0 46 -19t18 -46t-18.5 -46.5t-45.5 -19.5t-46 19.5t-19 46.5t18.5 46t46.5 19zM78 -132l-20 26q28 22 46.5 51t18.5 58q-7 -12 -28 -12q-18 0 -32 16t-14 43t18.5 45.5t45.5 18.5q31 0 48 -22t17 -56q0 -108 -100 -168z" />
    <glyph glyph-name="less" unicode="&#x3c;" horiz-adv-x="519" 
d="M110 268v-4l368 -160v-66l-450 203v51l450 202v-66z" />
    <glyph glyph-name="equal" unicode="=" horiz-adv-x="519" 
d="M485 325h-451v61h451v-61zM485 146h-451v61h451v-61z" />
    <glyph glyph-name="greater" unicode="&#x3e;" horiz-adv-x="519" 
d="M410 264v4l-369 160v66l450 -202v-51l-450 -203v66z" />
    <glyph glyph-name="question" unicode="?" horiz-adv-x="488" 
d="M231 185h-45q0 115 26 166q7 14 19 29.5t30 36.5t28 33q50 56 50 132q0 22 -4.5 42t-15.5 42.5t-35 36t-59 13.5q-23 0 -40 -6.5t-31 -23t-22 -30t-22 -41.5q-15 -37 -46 -37q-18 0 -29.5 11.5t-11.5 32.5q0 48 56 93.5t154 45.5q95 0 158 -48t63 -126q0 -95 -76 -161
q-10 -9 -42.5 -34t-54.5 -45q-50 -36 -50 -162zM210 120q29 0 47 -19.5t18 -46.5t-18.5 -46.5t-46.5 -19.5q-27 0 -45.5 19.5t-18.5 46.5t18.5 46.5t45.5 19.5z" />
    <glyph glyph-name="at" unicode="@" horiz-adv-x="734" 
d="M536 547l-50 -212q-6 -26 -6 -40q0 -13 4.5 -19.5t9 -7.5t13.5 -1q46 0 85.5 61.5t39.5 133.5q0 88 -59 138t-157 50q-127 0 -216 -86t-89 -216q0 -117 74 -184t180 -67q93 0 166 35l17 -29q-76 -53 -203 -53q-126 0 -214.5 79.5t-88.5 218.5q0 150 105 249.5t266 99.5
q142 0 211 -68t69 -167q0 -103 -61.5 -176t-138.5 -73q-47 0 -62.5 29.5t-11.5 62.5h-2q-21 -36 -56.5 -64t-72.5 -28t-59.5 25.5t-22.5 73.5q0 91 61 163.5t136 72.5q48 0 63 -26h2l6 25h62zM448 434l10 45q-7 30 -43 30q-50 0 -95 -63.5t-45 -123.5q0 -51 36 -53
q36 0 77.5 49t59.5 116z" />
    <glyph glyph-name="A" unicode="A" horiz-adv-x="652" 
d="M448 106l-39 124h-237l-31 -113q-10 -37 -10 -50q0 -16 11 -21.5t40 -5.5v-40h-169v40q26 0 38.5 11.5t23.5 45.5l203 664h72l222 -650q15 -44 27.5 -57.5t39.5 -13.5v-40h-235v40q29 0 40.5 6t11.5 21q0 13 -8 39zM189 280h204l-106 328h-3z" />
    <glyph glyph-name="B" unicode="B" horiz-adv-x="633" 
d="M113 124v498q0 56 -13 69.5t-68 13.5v41h259q80 0 126 -8.5t81 -33.5q63 -45 63 -125q0 -29 -8.5 -55.5t-29 -53t-62 -46t-99.5 -28.5v-2q110 -3 171 -52t61 -131q0 -94 -58 -150q-63 -61 -210 -61h-294v40q55 0 68 14t13 70zM315 697h-50q-19 0 -24.5 -7.5t-5.5 -28.5
v-245h54q28 0 52 6t47 21.5t36.5 46.5t13.5 75q0 132 -123 132zM303 366h-68v-266q0 -31 7 -40.5t29 -9.5h62q133 0 133 165q0 67 -38 109t-125 42z" />
    <glyph glyph-name="C" unicode="C" horiz-adv-x="623" 
d="M562 548l-51 -10q-8 41 -13 62t-15.5 47.5t-23.5 38t-36 20.5t-54 9q-49 0 -86 -22.5t-58 -56.5t-34 -80.5t-17 -86.5t-4 -83q0 -174 56 -259.5t138 -85.5q68 0 109 46.5t61 112.5l50 -12q-31 -110 -96.5 -156.5t-143.5 -46.5q-147 0 -224.5 100t-77.5 293
q0 185 84.5 284t237.5 99q86 0 172 -35q9 -89 26 -178z" />
    <glyph glyph-name="D" unicode="D" horiz-adv-x="703" 
d="M305 0h-273v40q55 0 68 13.5t13 69.5v500q0 56 -12.5 69t-68.5 13v41h292q86 0 143.5 -19.5t101.5 -63.5q92 -96 92 -281t-82 -281q-90 -101 -274 -101zM322 699h-55q-20 0 -26 -9.5t-6 -41.5v-538q0 -41 6.5 -52t29.5 -11h37q43 0 79.5 13.5t71.5 47t55 100t20 161.5
q0 330 -212 330z" />
    <glyph glyph-name="E" unicode="E" horiz-adv-x="583" 
d="M560 172l-34 -172h-494v40q54 0 67.5 14t13.5 69v500q0 55 -13 68.5t-68 13.5v41h468l32 -166h-52q-19 81 -34.5 99t-58.5 18h-116q-24 0 -30 -8.5t-6 -38.5v-238h108q34 0 44 18t10 84h49v-256h-49q0 71 -9 87.5t-44 16.5h-109v-267q0 -29 6 -37t22 -8h150q44 0 60 19.5
t35 102.5h52z" />
    <glyph glyph-name="F" unicode="F" horiz-adv-x="554" 
d="M393 506h50v-257h-50q0 70 -10 87.5t-44 17.5h-104v-231q0 -57 14 -70t80 -13v-40h-297v40q55 0 68 14t13 69v500q0 55 -13 68.5t-68 13.5v41h470l33 -168h-51q-20 81 -35 100t-57 19h-121q-24 0 -30 -9t-6 -42v-242h103q34 0 44.5 18.5t10.5 83.5z" />
    <glyph glyph-name="G" unicode="G" horiz-adv-x="660" 
d="M564 550l-51 -9q-17 97 -43 135.5t-99 38.5q-89 0 -145 -89.5t-56 -244.5q0 -94 20 -170.5t64 -125t105 -48.5q59 0 107 40v117q0 44 -11.5 54.5t-62.5 10.5v41h242v-41q-40 0 -49 -8t-9 -43v-134q-42 -40 -101.5 -64.5t-125.5 -24.5q-151 0 -229 107.5t-78 281.5
q0 171 87 279t248 108q76 0 163 -36q6 -64 24 -175z" />
    <glyph glyph-name="H" unicode="H" horiz-adv-x="764" 
d="M732 746v-41q-55 0 -67.5 -13t-12.5 -69v-500q0 -56 12.5 -69.5t67.5 -13.5v-40h-269v40q46 0 56.5 13t10.5 67v243h-295v-243q0 -54 10.5 -67t56.5 -13v-40h-270v40q55 0 68 14t13 69v500q0 56 -13 69t-68 13v41h270v-41q-46 0 -56.5 -12.5t-10.5 -65.5v-214h295v213
q0 54 -10.5 66.5t-56.5 12.5v41h269z" />
    <glyph glyph-name="I" unicode="I" horiz-adv-x="354" 
d="M30 0v40q59 0 72.5 13.5t13.5 69.5v500q0 56 -13 69t-72 13v41h293v-41q-59 0 -72.5 -13t-13.5 -69v-500q0 -55 14 -69t72 -14v-40h-294z" />
    <glyph glyph-name="J" unicode="J" horiz-adv-x="442" 
d="M330 622v-494q0 -268 -200 -268q-83 0 -122.5 27t-39.5 61q0 18 12 30t32 12q39 0 62 -45q22 -40 57 -40q45 0 61 46.5t16 150.5v519q0 58 -13.5 71t-73.5 13v41h288v-41q-54 0 -66.5 -13.5t-12.5 -69.5z" />
    <glyph glyph-name="K" unicode="K" horiz-adv-x="677" 
d="M524 656l-147 -187l190 -350q29 -52 46 -65.5t51 -13.5v-40h-169l-199 378l-62 -80v-174q0 -56 12 -70t60 -14v-40h-274v40q55 0 68 14t13 69v500q0 56 -13 69t-68 13v41h270v-41q-46 0 -57 -13.5t-11 -69.5v-238h3l183 239q37 48 37 64q0 18 -44 18v41h204v-41
q-32 0 -50 -8.5t-43 -40.5z" />
    <glyph glyph-name="L" unicode="L" horiz-adv-x="582" 
d="M510 181h53l-35 -181h-496v40q54 0 67.5 14t13.5 70v499q0 55 -13 68.5t-68 13.5v41h285v-41q-57 0 -69.5 -13t-12.5 -71v-524q0 -31 6.5 -39t26.5 -8h143q46 0 62 20.5t37 110.5z" />
    <glyph glyph-name="M" unicode="M" horiz-adv-x="930" 
d="M466 165l226 581h205v-41q-55 0 -67 -13t-12 -70v-499q0 -56 12.5 -69.5t67.5 -13.5v-40h-279v40q53 0 65 13.5t12 69.5v488h-3l-240 -617h-41l-246 619h-3v-490q0 -56 12 -69.5t62 -13.5v-40h-207v40q53 0 65 13.5t12 69.5v503q0 54 -12 66.5t-66 12.5v41h201l233 -581
h3z" />
    <glyph glyph-name="N" unicode="N" horiz-adv-x="715" 
d="M30 746h193l327 -591h2v468q0 55 -13.5 68.5t-66.5 13.5v41h210v-41q-49 0 -61.5 -13.5t-12.5 -68.5v-633h-86l-356 640h-2v-507q0 -56 12.5 -69.5t63.5 -13.5v-40h-209v40q52 0 64.5 13.5t12.5 69.5v501q0 56 -12 68.5t-66 12.5v41z" />
    <glyph glyph-name="O" unicode="O" horiz-adv-x="728" 
d="M363 -15q-164 0 -241 104t-77 284q0 82 17 150t53.5 122.5t99.5 85t148 30.5q74 0 131.5 -23t92 -60t57 -89t31 -104.5t8.5 -111.5q0 -63 -9 -117t-32 -105t-58.5 -87t-91.5 -57.5t-129 -21.5zM363 715q-81 0 -132 -64q-59 -78 -59 -278q0 -341 190 -341q83 0 134 67
q58 89 58 274q0 42 -2.5 77.5t-9 77t-20.5 73t-34 58.5t-52 41.5t-73 14.5z" />
    <glyph glyph-name="P" unicode="P" horiz-adv-x="634" 
d="M32 0v40q55 0 68 14t13 69v500q0 56 -13 69t-68 13v41h282q147 0 212 -49q70 -55 70 -154q0 -106 -68 -159q-72 -56 -227 -56h-66v-205q0 -57 14 -70t78 -13v-40h-295zM235 378h66q90 0 129.5 40.5t39.5 121.5q0 43 -12.5 74t-29 46.5t-42.5 24.5t-43.5 10.5t-40.5 1.5
h-43q-16 0 -20 -10.5t-4 -47.5v-261z" />
    <glyph glyph-name="Q" unicode="Q" horiz-adv-x="728" 
d="M684 -132v-39q-60 -24 -115 -24q-46 0 -89.5 14t-93 58t-84.5 114q-124 16 -190.5 112.5t-66.5 269.5q0 82 17 150t53.5 122.5t99.5 85t148 30.5q74 0 131.5 -23t92 -60t57 -89t31 -104.5t8.5 -111.5q0 -107 -26.5 -187t-86.5 -133t-151 -63q41 -79 84 -108.5t95 -29.5
q37 0 86 16zM364 715q-81 0 -132 -64q-59 -78 -59 -278q0 -341 190 -341q83 0 134 67q58 89 58 274q0 42 -2.5 77.5t-9 77t-20.5 73t-34 58.5t-52 41.5t-73 14.5z" />
    <glyph glyph-name="R" unicode="R" horiz-adv-x="658" 
d="M32 746h279q140 0 208 -49q72 -51 72 -147q0 -71 -45 -125t-126 -69l139 -245q27 -46 45 -58.5t50 -12.5v-40h-167l-182 339h-70v-216q0 -57 11.5 -70t63.5 -13v-40h-278v40q55 0 68 14t13 70v499q0 56 -13 69t-68 13v41zM311 697h-50q-18 0 -22 -11t-4 -52v-245h58
q81 0 126 36t45 125q0 71 -41 111q-39 36 -112 36z" />
    <glyph glyph-name="S" unicode="S" horiz-adv-x="526" 
d="M29 181l51 12q22 -90 59.5 -124t101.5 -34q54 0 92.5 34.5t38.5 94.5q0 57 -31 91t-117 92q-53 35 -77 53t-52.5 47t-39 59.5t-10.5 71.5q0 32 12.5 62.5t38 58.5t72 45t108.5 17q88 0 159 -28q7 -68 22 -156l-51 -8q-16 84 -42 113t-91 29q-50 0 -83.5 -28t-33.5 -76
q0 -47 27.5 -77t108.5 -86q11 -8 36.5 -25t34 -23t25.5 -18.5t24.5 -19.5t17.5 -16.5t17 -19.5q41 -54 41 -127q0 -90 -67 -150t-186 -60q-86 0 -176 31q-9 81 -30 165z" />
    <glyph glyph-name="T" unicode="T" horiz-adv-x="617" 
d="M464 694h-97v-571q0 -57 14 -70t79 -13v-40h-307v40q64 0 78 13t14 70v571h-97q-33 0 -46.5 -7t-23 -32t-20.5 -89h-50l24 180h548l24 -180h-49q-11 64 -21.5 89.5t-23.5 32t-46 6.5z" />
    <glyph glyph-name="U" unicode="U" horiz-adv-x="698" 
d="M228 623v-367q0 -32 2.5 -56.5t11.5 -55.5t25 -51.5t46.5 -34.5t71.5 -14q43 0 74 16t46.5 37t24.5 53t10.5 54t1.5 50v369q0 56 -11.5 69t-59.5 13v41h196v-41q-47 0 -58 -13.5t-11 -68.5v-379q0 -133 -60 -196t-175 -63q-68 0 -116.5 15.5t-75.5 39t-42.5 61
t-19.5 71.5t-4 80v371q0 56 -11.5 69t-61.5 13v41h267v-41q-49 0 -60 -12.5t-11 -69.5z" />
    <glyph glyph-name="V" unicode="V" horiz-adv-x="668" 
d="M373 139h3l151 490q9 30 9 46q0 18 -12 24t-41 6v41h173v-41q-29 0 -41 -10.5t-23 -46.5l-209 -663h-79l-221 649q-16 47 -28 59t-45 12v41h247v-41q-30 0 -42.5 -7t-12.5 -23q0 -13 10 -45z" />
    <glyph glyph-name="W" unicode="W" horiz-adv-x="991" 
d="M980 746v-41q-26 0 -36 -10.5t-20 -47.5l-169 -662h-91l-159 568h-1l-155 -568h-94l-181 650q-13 45 -24.5 57.5t-39.5 12.5v41h232v-41q-30 0 -42 -5.5t-12 -21.5q0 -13 8 -43l135 -499h2l140 519q-9 31 -19.5 40.5t-45.5 9.5v41h235v-41q-30 0 -42 -6t-12 -23
q0 -13 8 -42l139 -498h2l124 495q8 34 8 47q0 16 -10.5 21.5t-38.5 5.5v41h159z" />
    <glyph glyph-name="X" unicode="X" horiz-adv-x="689" 
d="M426 125l-107 175h-2l-134 -190q-26 -35 -26 -50q0 -20 52 -20v-40h-197v40q24 0 38.5 11t43.5 49l192 261l-155 270q-32 51 -48 62.5t-52 11.5v41h264v-41q-48 0 -48 -20q0 -16 26 -59l97 -167h3l127 175q24 33 24 49q0 22 -51 22v41h192v-41q-23 0 -36.5 -10t-42.5 -47
l-182 -248l163 -275q35 -56 53.5 -70.5t53.5 -14.5v-40h-270v40q49 0 49 22q0 18 -27 63z" />
    <glyph glyph-name="Y" unicode="Y" horiz-adv-x="642" 
d="M267 123v203l-173 310q-25 45 -39.5 57t-42.5 12v41h254v-41q-56 0 -56 -21q0 -12 18 -46l133 -246h3l125 244q18 36 18 50q0 19 -46 19v41h172v-41q-28 0 -41 -10.5t-33 -50.5l-170 -317v-204q0 -56 14.5 -69.5t75.5 -13.5v-40h-302v40q62 0 76 13.5t14 69.5z" />
    <glyph glyph-name="Z" unicode="Z" horiz-adv-x="582" 
d="M19 28l378 669h-194q-55 0 -72 -18.5t-37 -102.5h-52l32 170h448l21 -30l-371 -666h213q58 0 77.5 20.5t40.5 107.5h52l-32 -178h-486z" />
    <glyph glyph-name="bracketleft" unicode="[" horiz-adv-x="317" 
d="M300 -128v-36h-189v942h189v-36h-93v-870h93z" />
    <glyph glyph-name="backslash" unicode="\" horiz-adv-x="410" 
d="M326 -13l-311 791h63l312 -791h-64z" />
    <glyph glyph-name="bracketright" unicode="]" horiz-adv-x="317" 
d="M205 -164h-188v36h92v870h-92v36h188v-942z" />
    <glyph glyph-name="asciicircum" unicode="^" horiz-adv-x="519" 
d="M285 742l194 -384h-66l-151 306h-3l-151 -306h-67l194 384h50z" />
    <glyph glyph-name="underscore" unicode="_" horiz-adv-x="500" 
d="M500 -75v-50h-500v50h500z" />
    <glyph glyph-name="grave" unicode="`" horiz-adv-x="392" 
d="M32 673l50 73l160 -145l-25 -35z" />
    <glyph glyph-name="a" unicode="a" horiz-adv-x="537" 
d="M342 324v46q0 108 -87 108q-70 0 -100 -79q-13 -34 -52 -34q-43 0 -43 41q0 43 53 77.5t150 34.5q43 0 74.5 -7t60.5 -24t44 -52t15 -86v-241q0 -73 32 -73q16 0 29 8l8 -34q-38 -15 -88 -15q-70 0 -89 56h-4q-63 -63 -158 -63q-61 0 -106 34.5t-45 98.5q0 80 72 125
q60 38 166 62zM342 94v191q-40 -12 -68 -23.5t-57.5 -29t-45 -41.5t-15.5 -54q0 -53 25.5 -73t59.5 -20q53 0 101 50z" />
    <glyph glyph-name="b" unicode="b" horiz-adv-x="583" 
d="M179 43h-3l-83 -49l-14 4v632q0 45 -9 56.5t-46 11.5v32q87 14 156 48l14 -7v-309h2q54 56 139 56q104 0 157.5 -73.5t53.5 -183.5q0 -118 -59.5 -196t-163.5 -78q-80 0 -144 56zM194 411v-320q55 -58 108 -58q59 0 90.5 59t31.5 168q0 28 -3.5 56t-14 67t-36.5 63
t-64 24q-60 0 -112 -59z" />
    <glyph glyph-name="c" unicode="c" horiz-adv-x="488" 
d="M428 120l36 -20q-72 -113 -190 -113q-61 0 -106 21t-69 50.5t-38.5 69.5t-18.5 69t-4 59q0 118 65.5 190t178.5 72q75 0 122.5 -33.5t47.5 -74.5q0 -21 -10 -33.5t-28 -12.5q-15 0 -27 10t-17.5 20t-14.5 29q-22 55 -71 55q-52 0 -88.5 -55.5t-36.5 -164.5
q0 -69 14.5 -117t37.5 -69t43.5 -29t41.5 -8q78 0 132 85z" />
    <glyph glyph-name="d" unicode="d" horiz-adv-x="583" 
d="M386 467h2v157q0 49 -10 61.5t-54 12.5v32q94 11 164 48l14 -7v-670q0 -46 9 -56.5t46 -11.5v-30q-98 0 -153 -16l-9 7l-4 55h-2q-50 -61 -138 -61q-92 0 -152.5 67.5t-60.5 204.5q0 110 56.5 184t168.5 74q74 0 123 -51zM388 103v302q-44 67 -103 67q-126 0 -126 -219
q0 -102 34 -160t88 -58q58 0 107 68z" />
    <glyph glyph-name="e" unicode="e" horiz-adv-x="523" 
d="M449 128l37 -18q-67 -123 -204 -123q-49 0 -90.5 13.5t-77 43.5t-56 86t-20.5 134q0 68 23.5 123.5t77.5 93t131 37.5q53 0 93 -18.5t63 -46t37.5 -64.5t19 -68t4.5 -63h-328q0 -107 36 -164q39 -61 107 -61q50 0 88 26.5t59 68.5zM159 299h211q0 28 -3 53t-12.5 56.5
t-31.5 50.5t-54 19q-43 0 -75 -41.5t-35 -137.5z" />
    <glyph glyph-name="f" unicode="f" horiz-adv-x="353" 
d="M30 0v35q48 0 59 12.5t11 68.5v347h-69v42h69v70q0 59 16.5 101t44.5 63t57 30t63 9q67 0 107.5 -32t40.5 -69q0 -45 -42 -45q-16 0 -27.5 8.5t-16.5 18t-11 26.5q-16 39 -29 47q-9 5 -20 5q-69 0 -69 -162v-70h114v-42h-114v-350q0 -54 12.5 -66t69.5 -12v-35h-266z" />
    <glyph glyph-name="g" unicode="g" horiz-adv-x="573" 
d="M554 447l-104 8q52 -49 52 -123q0 -91 -61.5 -139.5t-156.5 -48.5q-57 0 -104 19q-43 -29 -43 -56q0 -44 88 -44h114q112 0 163 -41.5t51 -105.5q0 -82 -78.5 -134t-204.5 -52q-115 0 -181 32.5t-66 96.5q0 45 34.5 79t85.5 54q-36 8 -60 29.5t-24 54.5q0 55 85 103
q-85 52 -85 152q0 87 61.5 137t158.5 50q78 0 133 -32l142 19v-58zM282 185q52 0 77.5 40.5t25.5 106.5q0 61 -26.5 103.5t-78.5 42.5q-50 0 -77.5 -43t-27.5 -103q0 -67 28.5 -107t78.5 -40zM321 -23h-129q-75 -48 -75 -106q0 -46 43 -73.5t115 -27.5q84 0 134 34.5
t50 84.5q0 88 -138 88z" />
    <glyph glyph-name="h" unicode="h" horiz-adv-x="605" 
d="M30 0v35q43 0 53.5 13t10.5 66v511q0 49 -10.5 61t-52.5 12v32q92 14 163 48l14 -8v-338h2q74 86 171 86q31 0 55.5 -7.5t40 -18t26.5 -28t16.5 -31.5t8 -35.5t3 -32t0.5 -28.5v-224q0 -51 9 -64.5t46 -13.5v-35h-223v35q37 0 45.5 12.5t8.5 66.5v219q0 24 -1 39.5
t-5.5 35t-12.5 31t-23 19.5t-37 8q-58 0 -130 -93v-260q0 -53 8 -65.5t43 -12.5v-35h-229z" />
    <glyph glyph-name="i" unicode="i" horiz-adv-x="300" 
d="M151 725q30 0 49 -21t19 -54q0 -34 -19.5 -55t-48.5 -21t-48 20.5t-19 55.5q0 33 19 54t48 21zM201 518l13 -7v-398q0 -52 10 -65t54 -13v-35h-247v35q47 0 57.5 12.5t10.5 66.5v250q0 53 -9.5 63.5t-58.5 10.5v32q84 9 170 48z" />
    <glyph glyph-name="j" unicode="j" horiz-adv-x="294" 
d="M152 726q31 0 49.5 -22t18.5 -54q0 -34 -19 -55t-49 -21q-29 0 -48 21t-19 55q0 33 19 54.5t48 21.5zM216 511v-469q0 -53 -3.5 -92.5t-15 -83t-31 -71.5t-55.5 -46.5t-85 -18.5q-70 0 -107.5 32t-37.5 64q0 18 10.5 29t27.5 11q21 0 33 -11.5t24 -37.5q20 -46 51 -46
q18 0 31 10.5t21 32t13 43.5t7 55.5t2.5 56t0.5 56.5v340q0 52 -10 62.5t-60 10.5v32q91 10 171 48z" />
    <glyph glyph-name="k" unicode="k" horiz-adv-x="577" 
d="M207 770v-489h2l142 143q23 23 23 32q0 14 -40 14v35h183v-35q-45 0 -78 -32l-103 -102l155 -254q17 -29 34.5 -38t45.5 -9v-35h-161l-156 265l-47 -51v-101q1 -52 9.5 -65t47.5 -13v-35h-234v35q44 0 53.5 13t9.5 65v508q0 50 -10.5 63.5t-52.5 13.5v32q87 10 163 48z
" />
    <glyph glyph-name="l" unicode="l" horiz-adv-x="300" 
d="M29 0v35q47 0 58 13.5t11 65.5v512q0 48 -11 60t-58 12v32q91 11 169 48l14 -8v-657q0 -52 10 -65t54 -13v-35h-247z" />
    <glyph glyph-name="m" unicode="m" horiz-adv-x="884" 
d="M499 431h4q75 87 164 87q144 0 144 -175v-234q0 -49 9 -61.5t44 -12.5v-35h-219v35q34 0 43 12t9 58v230q0 131 -73 131q-59 0 -115 -86v-271q0 -50 8.5 -62t43.5 -12v-35h-217v35q35 0 43 11t8 59v227q0 26 -2 44t-8 41.5t-22 36t-40 12.5q-50 0 -115 -87v-269
q0 -51 8.5 -63t43.5 -12v-35h-230v35q44 0 54 12.5t10 66.5v248q0 51 -10.5 64t-53.5 12v32q89 12 157 48l15 -8l4 -75h1q75 83 158 83q105 0 134 -87z" />
    <glyph glyph-name="n" unicode="n" horiz-adv-x="604" 
d="M206 429h2q73 89 167 89q156 0 156 -165v-242q0 -49 9 -62.5t44 -13.5v-35h-219v35q36 0 44 12.5t8 66.5v236q0 61 -19.5 88.5t-62.5 27.5q-59 0 -127 -94v-259q0 -54 7.5 -66t42.5 -12v-35h-228v35q43 0 53.5 13t10.5 66v248q0 51 -10.5 64t-53.5 12v32q89 12 156 48
l16 -8z" />
    <glyph glyph-name="o" unicode="o" horiz-adv-x="570" 
d="M285 -13q-247 0 -247 269q0 120 60.5 191t186.5 71q130 0 188.5 -73.5t58.5 -188.5q0 -143 -68 -208q-65 -61 -179 -61zM284 478q-126 0 -126 -225t126 -225t126 225t-126 225z" />
    <glyph glyph-name="p" unicode="p" horiz-adv-x="596" 
d="M208 42h-2v-191q0 -50 10 -62.5t51 -12.5v-35h-237v35q43 0 52.5 12.5t9.5 62.5v511q0 52 -9.5 64t-52.5 12v32q82 10 156 48l13 -8l4 -61h2q60 69 150 69t147 -69t57 -191q0 -66 -14.5 -116t-36 -78.5t-51.5 -46.5t-56.5 -23.5t-54.5 -5.5q-84 0 -138 54zM206 396v-295
q50 -65 113 -65q118 0 118 225q0 21 -1 39t-7.5 51.5t-17.5 56.5t-34.5 41t-55.5 18q-57 0 -115 -71z" />
    <glyph glyph-name="q" unicode="q" horiz-adv-x="585" 
d="M490 516l12 -4v-661q0 -50 9.5 -62.5t50.5 -12.5v-35h-240v35q46 0 56 12t10 63v190h-2q-55 -53 -127 -53q-116 0 -168.5 73.5t-52.5 191.5q0 115 58.5 190t183.5 75q74 0 144 -55h3zM388 99v317q-43 57 -101 57q-128 0 -128 -215q0 -224 124 -224q59 0 105 65z" />
    <glyph glyph-name="r" unicode="r" horiz-adv-x="441" 
d="M201 510l4 -76h2q34 45 64 64.5t67 19.5q38 0 64 -24.5t26 -58.5q0 -23 -11 -36.5t-30 -13.5q-33 0 -47 39q-8 22 -15.5 30.5t-20.5 8.5q-37 0 -97 -86v-264q0 -51 12.5 -64.5t61.5 -13.5v-35h-251v35q43 0 53 12.5t10 65.5v253q0 49 -10 60.5t-53 11.5v32q86 10 158 48z
" />
    <glyph glyph-name="s" unicode="s" horiz-adv-x="454" 
d="M26 142l37 8q18 -68 51 -95t85 -27q55 0 80.5 27.5t25.5 59.5q0 31 -20 52q-6 7 -17 14.5t-21 13t-29.5 16t-34.5 18.5q-10 6 -30.5 18t-31 18t-24 16.5t-23.5 21.5q-33 40 -33 86q0 54 49 91.5t146 37.5q78 0 140 -23q9 -68 19 -114l-37 -7q-12 59 -37.5 81.5
t-73.5 22.5q-35 0 -65 -16.5t-30 -49.5q0 -35 42 -64q13 -7 52 -26t53 -28q125 -65 125 -153q0 -66 -56.5 -110t-155.5 -44q-92 0 -164 31q-7 54 -22 124z" />
    <glyph glyph-name="t" unicode="t" horiz-adv-x="362" 
d="M89 463h-66v33q59 5 91.5 42t53.5 119h35v-152h127v-42h-127v-340q0 -86 58 -86q37 0 73 27l21 -33q-52 -44 -130 -44q-136 0 -136 136v340z" />
    <glyph glyph-name="u" unicode="u" horiz-adv-x="600" 
d="M513 511v-399q0 -53 9.5 -65.5t52.5 -12.5v-32q-98 0 -158 -15l-11 6l-5 69h-3q-64 -75 -159 -75q-84 0 -121.5 46t-37.5 136v196q0 50 -8.5 61.5t-46.5 11.5v32q83 12 154 48l16 -7v-329q0 -24 1.5 -40.5t9 -42.5t27 -40.5t49.5 -14.5q63 0 117 73v249q0 50 -8.5 61
t-45.5 11v32q83 12 153 48z" />
    <glyph glyph-name="v" unicode="v" horiz-adv-x="526" 
d="M461 418l-167 -431h-50l-170 413q-20 48 -31.5 59t-36.5 11v35h223v-35q-25 0 -35 -4t-10 -16q0 -9 10 -37l104 -285h2l108 300q7 19 7 25q0 17 -41 17v35h144v-35q-23 0 -33.5 -9.5t-23.5 -42.5z" />
    <glyph glyph-name="w" unicode="w" horiz-adv-x="780" 
d="M769 505v-35q-21 0 -30.5 -9.5t-19.5 -41.5l-139 -433h-67l-113 371h-2l-117 -371h-69l-144 413q-17 49 -27 60t-36 11v35h207v-35q-24 0 -34 -5t-10 -18q0 -11 8 -37l96 -291h3l97 314l-7 20q-4 11 -13.5 14t-35.5 3v35h204v-35q-25 0 -35 -4.5t-10 -17.5q0 -11 6 -32
l91 -298h3l96 311q4 16 4 19q0 22 -44 22v35h138z" />
    <glyph glyph-name="x" unicode="x" horiz-adv-x="532" 
d="M310 85l-71 120h-2l-90 -130q-12 -15 -12 -24q0 -16 40 -16v-35h-167v35q33 0 70 45l130 168l-112 170q-23 34 -36.5 43t-35.5 9v35h229v-35q-39 0 -39 -16q0 -10 17 -35l61 -100h2l74 103q17 23 17 33q0 15 -34 15v35h160v-35q-18 0 -31.5 -8.5t-35.5 -33.5l-122 -152
l125 -187q23 -35 38.5 -44.5t36.5 -9.5v-35h-233v35q37 0 37 15q0 12 -16 35z" />
    <glyph glyph-name="y" unicode="y" horiz-adv-x="545" 
d="M213 -125l46 131l-179 394q-21 49 -32.5 59.5t-40.5 10.5v35h226v-35q-46 0 -46 -21q0 -11 11 -38l114 -277h2l110 294q7 18 7 24q0 18 -45 18v35h154v-35q-27 0 -38 -9t-24 -43l-211 -546q-31 -70 -68.5 -106t-92.5 -36q-52 0 -83.5 24.5t-31.5 56.5q0 16 11 27.5
t25 11.5q35 0 54 -39q17 -38 40 -38q46 0 92 102z" />
    <glyph glyph-name="z" unicode="z" horiz-adv-x="466" 
d="M79 367h-40l22 138h369l13 -18l-280 -445h162q37 0 52 19t30 84h39l-22 -145h-392l-12 19l285 444h-147q-39 0 -52.5 -18t-26.5 -78z" />
    <glyph glyph-name="braceleft" unicode="{" horiz-adv-x="327" 
d="M101 309v-3q58 -7 91.5 -47t33.5 -107v-147q0 -71 21 -102t74 -31v-36q-103 0 -148 38.5t-45 133.5v170q0 93 -85 111v36q85 19 85 111v169q0 96 45 134.5t148 38.5v-36q-53 0 -74 -31.5t-21 -103.5v-146q0 -67 -33.5 -106t-91.5 -46z" />
    <glyph glyph-name="bar" unicode="|" horiz-adv-x="352" 
d="M205 -263h-59v1052h59v-1052z" />
    <glyph glyph-name="braceright" unicode="}" horiz-adv-x="327" 
d="M200 178v-170q0 -95 -45 -133.5t-148 -38.5v36q53 0 73.5 31t20.5 102v147q0 67 34 107t92 47v3q-58 7 -92 46t-34 106v146q0 72 -20.5 103.5t-73.5 31.5v36q103 0 148 -38.5t45 -134.5v-169q0 -92 86 -111v-36q-86 -18 -86 -111z" />
    <glyph glyph-name="asciitilde" unicode="~" horiz-adv-x="519" 
d="M74 212l-43 5q7 50 40.5 80t82.5 30q43 0 87 -19l60 -28q39 -18 69 -18q29 0 49 15t26 42l44 -5q-7 -50 -41 -80t-83 -30q-43 0 -86 19l-64 30q-40 16 -65 16q-29 0 -49 -15t-27 -42z" />
    <glyph glyph-name="exclamdown" unicode="&#xa1;" horiz-adv-x="296" 
d="M148 386q-28 0 -46 20t-18 46q0 27 18.5 46.5t45.5 19.5t46 -19.5t19 -46.5t-19 -46.5t-46 -19.5zM126 325h42q8 -114 26 -292.5t18 -246.5q0 -24 -13.5 -32.5t-51.5 -8.5q-37 0 -50.5 8.5t-13.5 32.5q0 67 17.5 244t25.5 295z" />
    <glyph glyph-name="cent" unicode="&#xa2;" 
d="M365 727v-105q79 -6 120 -38t41 -69q0 -20 -10.5 -33t-30.5 -13q-36 0 -55 56q-9 28 -23 40.5t-42 13.5v-439q47 2 77 24.5t55 60.5l35 -20q-55 -106 -167 -112v-96h-39v95q-101 4 -160 60q-72 73 -72 208q0 118 62 186.5t170 75.5v105h39zM326 142v436q-48 -7 -80.5 -63
t-32.5 -155q0 -105 32.5 -157t80.5 -61z" />
    <glyph glyph-name="sterling" unicode="&#xa3;" 
d="M437 412v-42h-124q21 -73 21 -147q0 -55 -26 -116q85 -40 131 -40q38 0 60 19.5t35 59.5l40 -5q-17 -83 -49.5 -117.5t-88.5 -34.5q-61 0 -155 66q-42 -64 -124 -64q-39 0 -64.5 19.5t-25.5 57.5q0 33 26 54.5t69 21.5q29 0 59 -15q5 30 5 59q0 60 -28 182h-103v42h89
q-19 73 -19 135q0 20 4.5 42.5t18.5 50.5t35 50t59 37t87 15q77 0 130.5 -42t53.5 -93q0 -25 -12 -38.5t-33 -13.5q-18 0 -31 12t-18.5 23.5t-15.5 36.5q-26 72 -76 72q-35 0 -59 -24.5t-32.5 -53.5t-8.5 -59q0 -61 31 -150h139zM162 105q-47 0 -47 -38q0 -17 11 -27t29 -10
q43 0 60 58q-28 17 -53 17z" />
    <glyph glyph-name="currency" unicode="&#xa4;" 
d="M80 169l82 81q-40 50 -40 114q0 62 39 114l-81 80l38 37l81 -80q48 37 113 37q62 0 115 -37l80 80l37 -37l-80 -80q38 -51 38 -114q0 -64 -38 -115l80 -80l-37 -37l-81 80q-50 -37 -114 -37q-63 0 -114 37l-80 -80zM312 497q-56 0 -94.5 -39.5t-38.5 -93.5q0 -55 39 -94
t94 -39t94.5 39t39.5 94t-39.5 94t-94.5 39z" />
    <glyph glyph-name="yen" unicode="&#xa5;" 
d="M259 313v17l-155 289q-23 43 -38 56t-44 13v41h254v-41q-55 0 -55 -23q0 -15 16 -44l116 -229h3l113 228q17 34 17 48q0 20 -49 20v41h170v-41q-29 0 -43.5 -12.5t-33.5 -52.5l-150 -295v-15h183v-42h-183v-66h183v-42h-183v-51q0 -47 16 -59.5t74 -12.5v-40h-302v40
q60 0 75.5 12t15.5 60v51h-185v42h185v66h-185v42h185z" />
    <glyph glyph-name="brokenbar" unicode="&#xa6;" horiz-adv-x="352" 
d="M205 342h-59v368h59v-368zM205 -184h-59v368h59v-368z" />
    <glyph glyph-name="section" unicode="&#xa7;" horiz-adv-x="1000" 
d="M289 43l38 8q18 -63 49.5 -95t100.5 -32q59 0 91.5 28t32.5 79q0 49 -29.5 76t-112.5 71q-86 47 -124.5 86t-38.5 102q0 79 79 124q-61 56 -61 123q0 71 55.5 109.5t140.5 38.5q76 0 147 -23q4 -34 22 -128l-39 -7q-7 33 -13 49t-19.5 35t-37 26.5t-59.5 7.5
q-52 0 -81 -24.5t-29 -58.5q0 -42 27.5 -66t127.5 -81q35 -19 55 -31.5t47 -35.5t40 -51.5t13 -62.5q0 -87 -75 -133q56 -53 56 -121q0 -16 -2.5 -32t-15.5 -43.5t-35.5 -47t-67.5 -34.5t-106 -15q-76 0 -151 26q-11 73 -25 133zM370 397q0 -40 25.5 -63t91.5 -59
q89 -47 117 -72q32 27 32 71q0 28 -17 54.5t-71 56.5q-8 5 -62 34t-77 47q-39 -28 -39 -69z" />
    <glyph glyph-name="dieresis" unicode="&#xa8;" horiz-adv-x="1000" 
d="M384 925q24 0 40 -17t16 -40t-16.5 -40t-39.5 -17t-40 17t-17 40t17 40t40 17zM614 925q23 0 39.5 -17t16.5 -40t-17 -40t-40 -17t-39.5 17t-16.5 40t16 40t41 17z" />
    <glyph glyph-name="copyright" unicode="&#xa9;" horiz-adv-x="716" 
d="M358 761q134 0 225 -90t91 -219q0 -131 -91.5 -220.5t-224.5 -89.5t-224.5 90t-91.5 220t91.5 219.5t224.5 89.5zM359 721q-112 0 -189.5 -78.5t-77.5 -190.5q0 -113 78 -191t189 -78t189 78t78 191t-78 191t-189 78zM498 520l-31 -6q-6 29 -10 41t-13 26.5t-24.5 19
t-40.5 4.5q-38 0 -63.5 -17t-36 -44t-14 -46.5t-3.5 -39.5q0 -76 34 -114.5t83 -38.5q60 0 103 50l27 -14q-56 -73 -142 -73q-89 0 -133.5 56t-44.5 130q0 85 49 134t133 49q55 0 110 -19q4 -39 17 -98z" />
    <glyph glyph-name="ordfeminine" unicode="&#xaa;" horiz-adv-x="458" 
d="M237 609l41 10q0 18 -0.5 27t-3 23.5t-8 22t-16.5 13.5t-27 6q-27 0 -40.5 -8.5t-24.5 -32.5q-16 -31 -47 -31q-17 0 -26.5 9t-9.5 22q0 11 7.5 22t23.5 23t47.5 19.5t72.5 7.5q33 0 55.5 -3.5t45.5 -14.5t35 -35.5t12 -62.5v-143q0 -47 22 -47q8 0 18 6l6 -27
q-35 -14 -68 -14q-50 0 -68 34h-4q-43 -38 -112 -38q-49 0 -80 23t-31 62q0 47 38.5 72t141.5 55zM278 470v118q-71 -21 -96.5 -44t-25.5 -51q0 -30 18 -41.5t38 -11.5q34 0 66 30z" />
    <glyph glyph-name="guillemotleft" unicode="&#xab;" horiz-adv-x="459" 
d="M125 252v-5l123 -175l-28 -21l-190 192v14l190 193l28 -22zM298 252v-5l123 -175l-28 -21l-189 192v14l189 193l28 -22z" />
    <glyph glyph-name="logicalnot" unicode="&#xac;" horiz-adv-x="519" 
d="M34 386h447v-237h-60v176h-387v61z" />
    <glyph glyph-name="uni00AD" unicode="&#xad;" horiz-adv-x="519" 
d="M485 236h-451v61h451v-61z" />
    <glyph glyph-name="registered" unicode="&#xae;" horiz-adv-x="716" 
d="M358 761q134 0 225 -90t91 -219q0 -131 -91.5 -220.5t-224.5 -89.5t-224.5 90t-91.5 220t91.5 219.5t224.5 89.5zM359 721q-111 0 -189 -79t-78 -190q0 -113 78 -191t189 -78t189 78t78 191q0 112 -78 190.5t-189 78.5zM212 638h135q48 0 81 -10t47.5 -27t20 -31.5
t5.5 -29.5q0 -70 -84 -98l62 -100q15 -27 27 -35t28 -8v-25h-87l-89 158h-45v-88q0 -32 5.5 -38.5t36.5 -6.5v-25h-143v25q26 0 32 7t6 36v226q0 30 -6 37.5t-32 7.5v25zM342 611h-15q-9 0 -11.5 -4t-2.5 -20v-128q24 0 36 0.5t31.5 4.5t29 12t17 23t7.5 38q0 74 -92 74z
" />
    <glyph glyph-name="macron" unicode="&#xaf;" horiz-adv-x="392" 
d="M61 621v60h270v-60h-270z" />
    <glyph glyph-name="degree" unicode="&#xb0;" horiz-adv-x="1000" 
d="M214 544q-52 0 -88 37t-36 87q0 51 36.5 87.5t87.5 36.5t87.5 -36.5t36.5 -87.5t-36.5 -87.5t-87.5 -36.5zM214 585q35 0 59 24.5t24 58.5t-24.5 58.5t-58.5 24.5t-58.5 -24.5t-24.5 -58.5t24.5 -58.5t58.5 -24.5z" />
    <glyph glyph-name="plusminus" unicode="&#xb1;" horiz-adv-x="1000" 
d="M875 440h-354v-306h-42v306h-354v42h354v306h42v-306h354v-42zM875 12h-750v42h750v-42z" />
    <glyph glyph-name="uni00B2" unicode="&#xb2;" horiz-adv-x="416" 
d="M57 298l-15 14q18 94 94 161q16 14 57 42.5t56 44.5q31 34 31 76q0 33 -19 51t-55 18q-54 0 -74 -55q-13 -35 -44 -35q-34 0 -34 34q0 37 43.5 65t115.5 28q69 0 112.5 -28.5t43.5 -80.5q0 -47 -33 -80q-13 -14 -32 -28.5t-35 -24.5t-44 -27t-44 -28q-48 -29 -71 -82h166
q34 0 44.5 8.5t20.5 47.5l34 -4l-21 -117h-297z" />
    <glyph glyph-name="uni00B3" unicode="&#xb3;" horiz-adv-x="416" 
d="M233 537v-3q148 -10 148 -115q0 -14 -2.5 -27.5t-13.5 -33.5t-29.5 -34.5t-55.5 -25t-86 -10.5q-70 0 -114 29t-44 66t33 37q17 0 25.5 -8.5t24.5 -39.5q25 -47 78 -47q91 0 91 93q0 31 -20 58q-30 40 -119 40v33q123 0 123 87q0 69 -77 69q-54 0 -76 -55
q-14 -34 -41 -34q-15 0 -24 10t-9 25q0 34 44.5 62.5t111.5 28.5q91 0 127 -31t36 -76q0 -38 -36 -66q-29 -24 -95 -32z" />
    <glyph glyph-name="acute" unicode="&#xb4;" horiz-adv-x="1000" 
d="M643 957l39 -79l-228 -90l-20 39z" />
    <glyph glyph-name="mu" unicode="&#xb5;" horiz-adv-x="600" 
d="M513 511v-399q0 -53 9.5 -65.5t52.5 -12.5v-32q-98 0 -158 -15l-11 6l-5 68h-2q-49 -74 -121 -74q-52 0 -82 30h-1v-50q0 -46 3.5 -108.5t3.5 -79.5q0 -30 -11.5 -39.5t-52.5 -9.5q-38 0 -51.5 10.5t-13.5 41.5q0 19 3.5 86.5t3.5 121.5v375q0 50 -8.5 61.5t-46.5 11.5
v32q83 12 154 48l16 -7v-329q0 -25 2 -42t9.5 -42.5t27 -39.5t50.5 -14q63 0 115 73v249q0 50 -8.5 61t-45.5 11v32q83 12 153 48z" />
    <glyph glyph-name="paragraph" unicode="&#xb6;" horiz-adv-x="1000" 
d="M563 708h-68v-820h-132v38q57 0 69.5 10t12.5 57v344q-98 0 -150 52.5t-52 150.5q0 103 60 160q48 46 148 46h233v-38q-49 0 -59.5 -10t-10.5 -57v-648q0 -47 10.5 -57t59.5 -10v-38h-121v820z" />
    <glyph glyph-name="periodcentered" unicode="&#xb7;" horiz-adv-x="222" 
d="M111 329q28 0 46 -20t18 -45q0 -27 -18.5 -47t-45.5 -20t-45.5 20t-18.5 47q0 26 18.5 45.5t45.5 19.5z" />
    <glyph glyph-name="cedilla" unicode="&#xb8;" horiz-adv-x="392" 
d="M142 -63l36 63h56l-25 -47q37 -2 59 -22.5t22 -50.5q0 -37 -29 -62t-78 -25q-53 0 -101 29l20 37q34 -16 61 -16t41 12.5t14 30.5q0 16 -17 29t-45 10z" />
    <glyph glyph-name="uni00B9" unicode="&#xb9;" horiz-adv-x="416" 
d="M170 380v250q0 20 -3.5 27.5t-13.5 7.5q-16 0 -44 -12l-6 30q74 23 139 56l14 -5v-354q0 -35 9.5 -43t54.5 -8v-31h-217v31q47 0 57 8t10 43z" />
    <glyph glyph-name="ordmasculine" unicode="&#xba;" horiz-adv-x="473" 
d="M54 569q0 79 48.5 126t135.5 47q84 0 132.5 -47t48.5 -125q0 -31 -9 -59t-28 -55t-56 -43t-88 -16q-45 0 -79.5 12.5t-53.5 31t-31.5 43.5t-16 45t-3.5 40zM155 571q0 -140 81 -140q83 0 83 140q0 138 -83 138q-81 0 -81 -138z" />
    <glyph glyph-name="guillemotright" unicode="&#xbb;" horiz-adv-x="459" 
d="M38 72l123 175v5l-123 176l29 22l189 -193v-14l-189 -192zM211 72l124 175v5l-124 176l29 22l190 -193v-14l-190 -192z" />
    <glyph glyph-name="onequarter" unicode="&#xbc;" horiz-adv-x="946" 
d="M699 78v37h-209v29l214 298h79v-285h64l-7 -42h-57v-37q0 -32 9 -39t44 -7v-32h-199v32q41 0 51.5 7.5t10.5 38.5zM701 370h-4q-31 -50 -34 -54l-111 -159h147v143q0 45 2 70zM630 742h60l-427 -755h-60zM175 380v250q0 20 -3.5 27.5t-13.5 7.5q-15 0 -44 -12l-5 30
q66 21 139 56l14 -5v-354q0 -35 9.5 -43t53.5 -8v-31h-217v31q47 0 57 8t10 43z" />
    <glyph glyph-name="onehalf" unicode="&#xbd;" horiz-adv-x="946" 
d="M619 742h59l-427 -755h-59zM166 380v250q0 20 -3.5 27.5t-13.5 7.5q-16 0 -45 -12l-4 30q68 22 138 56l14 -5v-354q0 -34 10 -42.5t53 -8.5v-31h-215v31q46 0 56 8t10 43zM542 0l-17 14q19 95 95 161q17 16 57.5 44.5t55.5 43.5q31 35 31 75q0 69 -74 69
q-27 0 -44.5 -11.5t-29.5 -43.5q-14 -35 -44 -35q-34 0 -34 34q0 38 42.5 65.5t115.5 27.5q71 0 114 -29t43 -80q0 -45 -32 -80q-17 -21 -41.5 -37.5t-60.5 -36.5t-55 -32q-51 -33 -70 -84h165q34 0 45 9t21 47l34 -4l-21 -117h-296z" />
    <glyph glyph-name="threequarters" unicode="&#xbe;" horiz-adv-x="946" 
d="M735 78v37h-208v29l214 298h79v-285h63l-5 -42h-58v-37q0 -32 9 -39t44 -7v-32h-199v32q42 0 51.5 7.5t9.5 38.5zM738 370h-3q-2 -4 -14.5 -24t-20.5 -30l-111 -159h146v143q0 32 3 70zM249 537v-3q147 -10 147 -115q0 -16 -3 -30.5t-15 -34t-31 -33t-54.5 -23.5
t-82.5 -10q-72 0 -115.5 29t-43.5 66t33 37q19 0 31 -15q4 -5 10 -16.5t9 -16.5q27 -47 78 -47q91 0 91 93q0 98 -139 98v33q31 0 62 9q16 5 27 10.5t22.5 23.5t11.5 44q0 69 -77 69q-54 0 -76 -55q-14 -34 -41 -34q-15 0 -23.5 10t-8.5 25q0 34 43.5 62.5t111.5 28.5
q162 0 162 -107q0 -82 -129 -98zM669 742h59l-427 -755h-59z" />
    <glyph glyph-name="questiondown" unicode="&#xbf;" horiz-adv-x="488" 
d="M267 386q-28 0 -46.5 20t-18.5 46q0 27 19 46.5t46 19.5t46 -19.5t19 -46.5t-19 -46.5t-46 -19.5zM245 320h46q0 -114 -26 -165q-8 -14 -20 -29.5t-30.5 -37t-27.5 -32.5q-50 -58 -50 -132q0 -21 3.5 -39.5t14 -42.5t35.5 -38t61 -14q43 0 67.5 25t47.5 75q15 38 46 38
q42 0 42 -44q0 -48 -56 -93.5t-154 -45.5q-104 0 -163 51t-59 123q0 95 76 160q11 10 43.5 35t53.5 44q50 38 50 162z" />
    <glyph glyph-name="Agrave" unicode="&#xc0;" horiz-adv-x="652" 
d="M126 877l39 80l207 -130l-21 -40zM448 106l-39 124h-237l-31 -113q-10 -37 -10 -50q0 -16 11 -21.5t40 -5.5v-40h-169v40q26 0 38.5 11.5t23.5 45.5l203 664h72l222 -650q15 -44 27.5 -57.5t39.5 -13.5v-40h-235v40q29 0 40.5 6t11.5 21q0 13 -8 39zM189 280h204
l-106 328h-3z" />
    <glyph glyph-name="Aacute" unicode="&#xc1;" horiz-adv-x="652" 
d="M250 827l206 130l40 -80l-226 -90zM448 106l-39 124h-237l-31 -113q-10 -37 -10 -50q0 -16 11 -21.5t40 -5.5v-40h-169v40q26 0 38.5 11.5t23.5 45.5l203 664h72l222 -650q15 -44 27.5 -57.5t39.5 -13.5v-40h-235v40q29 0 40.5 6t11.5 21q0 13 -8 39zM189 280h204
l-106 328h-3z" />
    <glyph glyph-name="Acircumflex" unicode="&#xc2;" horiz-adv-x="652" 
d="M473 801l-163 59h-2l-163 -59l-22 38l185 104h3l184 -104zM448 106l-39 124h-237l-31 -113q-10 -37 -10 -50q0 -16 11 -21.5t40 -5.5v-40h-169v40q26 0 38.5 11.5t23.5 45.5l203 664h72l222 -650q15 -44 27.5 -57.5t39.5 -13.5v-40h-235v40q29 0 40.5 6t11.5 21
q0 13 -8 39zM189 280h204l-106 328h-3z" />
    <glyph glyph-name="Atilde" unicode="&#xc3;" horiz-adv-x="652" 
d="M443 923h47q-3 -52 -30 -83t-71 -31q-42 0 -84 21q-51 29 -76 29q-35 0 -46 -47h-47q4 53 30.5 83.5t70.5 30.5q46 0 86 -22q36 -19 48 -24t27 -5q34 0 45 48zM448 106l-39 124h-237l-31 -113q-10 -37 -10 -50q0 -16 11 -21.5t40 -5.5v-40h-169v40q26 0 38.5 11.5
t23.5 45.5l203 664h72l222 -650q15 -44 27.5 -57.5t39.5 -13.5v-40h-235v40q29 0 40.5 6t11.5 21q0 13 -8 39zM189 280h204l-106 328h-3z" />
    <glyph glyph-name="Adieresis" unicode="&#xc4;" horiz-adv-x="652" 
d="M448 106l-39 124h-237l-31 -113q-10 -37 -10 -50q0 -16 11 -21.5t40 -5.5v-40h-169v40q26 0 38.5 11.5t23.5 45.5l203 664h72l222 -650q15 -44 27.5 -57.5t39.5 -13.5v-40h-235v40q29 0 40.5 6t11.5 21q0 13 -8 39zM189 280h204l-106 328h-3zM199 925q24 0 40 -17t16 -40
t-16.5 -40t-39.5 -17q-24 0 -41 17t-17 40q0 24 17 40.5t41 16.5zM423 925q26 0 42 -17t16 -40t-17 -40t-41 -17q-23 0 -39.5 17t-16.5 40q0 24 16.5 40.5t39.5 16.5z" />
    <glyph glyph-name="Aring" unicode="&#xc5;" horiz-adv-x="652" 
d="M307 954q45 0 75 -28.5t30 -68.5q0 -42 -30.5 -70t-74.5 -28q-45 0 -76 28t-31 70q0 41 31 69t76 28zM308 911q-23 0 -38 -16.5t-15 -37.5q0 -23 15.5 -39t37.5 -16t36.5 16t14.5 39q0 22 -15 38t-36 16zM448 106l-39 124h-237l-31 -113q-10 -37 -10 -50q0 -16 11 -21.5
t40 -5.5v-40h-169v40q26 0 38.5 11.5t23.5 45.5l199 649h81l217 -635q15 -44 27.5 -57.5t39.5 -13.5v-40h-235v40q29 0 40.5 6t11.5 21q0 13 -8 39zM189 280h204l-106 328h-3z" />
    <glyph glyph-name="AE" unicode="&#xc6;" horiz-adv-x="877" 
d="M13 0v40q23 0 36 11.5t29 46.5l244 533q17 34 17 49t-15.5 20t-52.5 5v41h524l32 -166h-52q-19 81 -34.5 99t-58.5 18h-109q-24 0 -30 -8.5t-6 -38.5v-238h98q34 0 43.5 18t9.5 84h51v-256h-51q0 71 -9 87.5t-44 16.5h-98v-267q0 -29 6 -37t22 -8h142q44 0 60 19.5
t35 102.5h52l-34 -172h-475v40q47 0 58.5 14t11.5 70v124h-209l-57 -135q-14 -33 -14 -48q0 -25 51 -25v-40h-173zM415 692h-6l-180 -394h186v394z" />
    <glyph glyph-name="Ccedilla" unicode="&#xc7;" horiz-adv-x="623" 
d="M534 200l50 -12q-26 -95 -82.5 -145.5t-131.5 -55.5l-21 -39q39 -2 64.5 -22t25.5 -59q0 -45 -35 -69t-86 -24q-59 0 -114 32l23 38q34 -17 69 -17q34 0 49 13.5t15 32.5t-17.5 33t-52.5 10l-14 13l34 59q-133 9 -200.5 110.5t-67.5 279.5q0 185 84.5 284t237.5 99
q86 0 172 -35q9 -89 26 -178l-51 -10q-8 41 -13 62t-15.5 47.5t-23.5 38t-36 20.5t-54 9q-59 0 -100.5 -31t-61.5 -83t-28.5 -104t-8.5 -111q0 -174 56 -259.5t138 -85.5q68 0 109 46.5t61 112.5z" />
    <glyph glyph-name="Egrave" unicode="&#xc8;" horiz-adv-x="583" 
d="M113 877l38 80l207 -130l-20 -40zM560 172l-34 -172h-494v40q54 0 67.5 14t13.5 69v500q0 55 -13 68.5t-68 13.5v41h468l32 -166h-52q-19 81 -34.5 99t-58.5 18h-116q-24 0 -30 -8.5t-6 -38.5v-238h108q34 0 44 18t10 84h49v-256h-49q0 71 -9 87.5t-44 16.5h-109v-267
q0 -29 6 -37t22 -8h150q44 0 60 19.5t35 102.5h52z" />
    <glyph glyph-name="Eacute" unicode="&#xc9;" horiz-adv-x="583" 
d="M236 827l207 130l39 -80l-225 -90zM560 172l-34 -172h-494v40q54 0 67.5 14t13.5 69v500q0 55 -13 68.5t-68 13.5v41h468l32 -166h-52q-19 81 -34.5 99t-58.5 18h-116q-24 0 -30 -8.5t-6 -38.5v-238h108q34 0 44 18t10 84h49v-256h-49q0 71 -9 87.5t-44 16.5h-109v-267
q0 -29 6 -37t22 -8h150q44 0 60 19.5t35 102.5h52z" />
    <glyph glyph-name="Ecircumflex" unicode="&#xca;" horiz-adv-x="583" 
d="M458 801l-163 59h-2l-163 -59l-22 38l185 104h2l185 -104zM560 172l-34 -172h-494v40q54 0 67.5 14t13.5 69v500q0 55 -13 68.5t-68 13.5v41h468l32 -166h-52q-19 81 -34.5 99t-58.5 18h-116q-24 0 -30 -8.5t-6 -38.5v-238h108q34 0 44 18t10 84h49v-256h-49
q0 71 -9 87.5t-44 16.5h-109v-267q0 -29 6 -37t22 -8h150q44 0 60 19.5t35 102.5h52z" />
    <glyph glyph-name="Edieresis" unicode="&#xcb;" horiz-adv-x="583" 
d="M182 925q25 0 41 -17t16 -40t-16.5 -40t-40.5 -17t-40.5 17t-16.5 40q0 24 16.5 40.5t40.5 16.5zM408 925q24 0 40 -17t16 -40t-16.5 -40t-39.5 -17q-24 0 -40.5 17t-16.5 40q0 24 16.5 40.5t40.5 16.5zM560 172l-34 -172h-494v40q54 0 67.5 14t13.5 69v500
q0 55 -13 68.5t-68 13.5v41h468l32 -166h-52q-19 81 -34.5 99t-58.5 18h-116q-24 0 -30 -8.5t-6 -38.5v-238h108q34 0 44 18t10 84h49v-256h-49q0 71 -9 87.5t-44 16.5h-109v-267q0 -29 6 -37t22 -8h150q44 0 60 19.5t35 102.5h52z" />
    <glyph glyph-name="Igrave" unicode="&#xcc;" horiz-adv-x="354" 
d="M12 877l38 80l207 -130l-20 -40zM30 0v40q59 0 72.5 13.5t13.5 69.5v500q0 56 -13 69t-72 13v41h293v-41q-59 0 -72.5 -13t-13.5 -69v-500q0 -55 14 -69t72 -14v-40h-294z" />
    <glyph glyph-name="Iacute" unicode="&#xcd;" horiz-adv-x="354" 
d="M90 827l207 130l38 -80l-225 -90zM30 0v40q59 0 72.5 13.5t13.5 69.5v500q0 56 -13 69t-72 13v41h293v-41q-59 0 -72.5 -13t-13.5 -69v-500q0 -55 14 -69t72 -14v-40h-294z" />
    <glyph glyph-name="Icircumflex" unicode="&#xce;" horiz-adv-x="354" 
d="M341 801l-163 59h-2l-163 -59l-22 38l185 104h3l184 -104zM30 0v40q59 0 72.5 13.5t13.5 69.5v500q0 56 -13 69t-72 13v41h293v-41q-59 0 -72.5 -13t-13.5 -69v-500q0 -55 14 -69t72 -14v-40h-294z" />
    <glyph glyph-name="Idieresis" unicode="&#xcf;" horiz-adv-x="354" 
d="M65 925q25 0 41 -17t16 -40t-16.5 -40t-40.5 -17q-23 0 -40 17t-17 40q0 24 17 40.5t40 16.5zM291 925q24 0 40 -17t16 -40t-16.5 -40t-39.5 -17q-24 0 -40.5 17t-16.5 40q0 24 16.5 40.5t40.5 16.5zM30 0v40q59 0 72.5 13.5t13.5 69.5v500q0 56 -13 69t-72 13v41h293
v-41q-59 0 -72.5 -13t-13.5 -69v-500q0 -55 14 -69t72 -14v-40h-294z" />
    <glyph glyph-name="Eth" unicode="&#xd0;" horiz-adv-x="703" 
d="M113 123v240h-89v50h89v210q0 56 -12.5 69t-68.5 13v41h292q86 0 143.5 -19.5t101.5 -63.5q92 -96 92 -281t-82 -281q-90 -101 -274 -101h-273v40q55 0 68 13.5t13 69.5zM235 648v-235h137v-50h-137v-253q0 -41 6.5 -52t29.5 -11h37q43 0 79.5 13.5t71.5 47t55 100
t20 161.5q0 330 -212 330h-55q-20 0 -26 -9.5t-6 -41.5z" />
    <glyph glyph-name="Ntilde" unicode="&#xd1;" horiz-adv-x="715" 
d="M493 923h46q-3 -53 -29.5 -83.5t-70.5 -30.5q-43 0 -84 21q-35 19 -48 24t-30 5q-34 0 -44 -47h-47q3 53 29.5 83.5t70.5 30.5q46 0 86 -22q54 -29 75 -29q35 0 46 48zM30 746h193l327 -591h2v468q0 55 -13.5 68.5t-66.5 13.5v41h210v-41q-49 0 -61.5 -13.5t-12.5 -68.5
v-633h-86l-356 640h-2v-507q0 -56 12.5 -69.5t63.5 -13.5v-40h-209v40q52 0 64.5 13.5t12.5 69.5v501q0 56 -12 68.5t-66 12.5v41z" />
    <glyph glyph-name="Ograve" unicode="&#xd2;" horiz-adv-x="728" 
d="M174 877l39 80l206 -130l-20 -40zM363 -15q-164 0 -241 104t-77 284q0 82 17 150t53.5 122.5t99.5 85t148 30.5q74 0 131.5 -23t92 -60t57 -89t31 -104.5t8.5 -111.5q0 -63 -9 -117t-32 -105t-58.5 -87t-91.5 -57.5t-129 -21.5zM363 715q-81 0 -132 -64q-59 -78 -59 -278
q0 -341 190 -341q83 0 134 67q58 89 58 274q0 42 -2.5 77.5t-9 77t-20.5 73t-34 58.5t-52 41.5t-73 14.5z" />
    <glyph glyph-name="Oacute" unicode="&#xd3;" horiz-adv-x="728" 
d="M298 827l207 130l38 -80l-225 -90zM363 -15q-164 0 -241 104t-77 284q0 82 17 150t53.5 122.5t99.5 85t148 30.5q74 0 131.5 -23t92 -60t57 -89t31 -104.5t8.5 -111.5q0 -63 -9 -117t-32 -105t-58.5 -87t-91.5 -57.5t-129 -21.5zM363 715q-81 0 -132 -64
q-59 -78 -59 -278q0 -341 190 -341q83 0 134 67q58 89 58 274q0 42 -2.5 77.5t-9 77t-20.5 73t-34 58.5t-52 41.5t-73 14.5z" />
    <glyph glyph-name="Ocircumflex" unicode="&#xd4;" horiz-adv-x="728" 
d="M525 801l-162 59h-2l-163 -59l-22 38l185 104h3l184 -104zM363 -15q-164 0 -241 104t-77 284q0 82 17 150t53.5 122.5t99.5 85t148 30.5q74 0 131.5 -23t92 -60t57 -89t31 -104.5t8.5 -111.5q0 -63 -9 -117t-32 -105t-58.5 -87t-91.5 -57.5t-129 -21.5zM363 715
q-81 0 -132 -64q-59 -78 -59 -278q0 -341 190 -341q83 0 134 67q58 89 58 274q0 42 -2.5 77.5t-9 77t-20.5 73t-34 58.5t-52 41.5t-73 14.5z" />
    <glyph glyph-name="Otilde" unicode="&#xd5;" horiz-adv-x="728" 
d="M493 923h46q-3 -52 -30 -83t-71 -31q-42 0 -84 21q-23 13 -32.5 18t-20.5 8t-24 3q-34 0 -45 -47h-46q3 53 29.5 83.5t70.5 30.5q46 0 86 -22q38 -20 49 -24.5t25 -4.5q19 0 29.5 11t17.5 37zM363 -15q-164 0 -241 104t-77 284q0 82 17 150t53.5 122.5t99.5 85t148 30.5
q74 0 131.5 -23t92 -60t57 -89t31 -104.5t8.5 -111.5q0 -63 -9 -117t-32 -105t-58.5 -87t-91.5 -57.5t-129 -21.5zM363 715q-81 0 -132 -64q-59 -78 -59 -278q0 -341 190 -341q83 0 134 67q58 89 58 274q0 42 -2.5 77.5t-9 77t-20.5 73t-34 58.5t-52 41.5t-73 14.5z" />
    <glyph glyph-name="Odieresis" unicode="&#xd6;" horiz-adv-x="728" 
d="M363 -15q-164 0 -241 104t-77 284q0 82 17 150t53.5 122.5t99.5 85t148 30.5q74 0 131.5 -23t92 -60t57 -89t31 -104.5t8.5 -111.5q0 -63 -9 -117t-32 -105t-58.5 -87t-91.5 -57.5t-129 -21.5zM363 715q-81 0 -132 -64q-59 -78 -59 -278q0 -341 190 -341q83 0 134 67
q58 89 58 274q0 42 -2.5 77.5t-9 77t-20.5 73t-34 58.5t-52 41.5t-73 14.5zM250 925q24 0 40 -17t16 -40t-16.5 -40t-39.5 -17q-24 0 -40.5 17t-16.5 40q0 24 16.5 40.5t40.5 16.5zM475 925q25 0 41.5 -17t16.5 -40t-17 -40t-41 -17q-23 0 -40 17t-17 40q0 24 17 40.5
t40 16.5z" />
    <glyph glyph-name="multiply" unicode="&#xd7;" horiz-adv-x="1000" 
d="M775 63l-275 275l-275 -275l-30 30l275 275l-275 275l30 30l275 -275l275 275l30 -30l-275 -275l275 -275z" />
    <glyph glyph-name="Oslash" unicode="&#xd8;" horiz-adv-x="728" 
d="M153 55l-64 -81l-38 33l67 87q-73 95 -73 279q0 82 17 150t53.5 122.5t99.5 85t148 30.5q134 0 214 -74l66 86l39 -33l-71 -92q72 -103 72 -275q0 -63 -9 -117t-32 -105t-58.5 -87t-91.5 -57.5t-129 -21.5q-133 0 -210 70zM197 193l318 416q-47 106 -151 106
q-154 0 -185 -211q-7 -48 -7 -111q0 -128 25 -200zM532 549l-317 -414q21 -51 60.5 -77t86.5 -26q89 0 140.5 80.5t51.5 253.5q0 109 -22 183z" />
    <glyph glyph-name="Ugrave" unicode="&#xd9;" horiz-adv-x="698" 
d="M174 877l39 80l206 -130l-19 -40zM228 623v-367q0 -32 2.5 -56.5t11.5 -55.5t25 -51.5t46.5 -34.5t71.5 -14q43 0 74 16t46.5 37t24.5 53t10.5 54t1.5 50v369q0 56 -11.5 69t-59.5 13v41h196v-41q-47 0 -58 -13.5t-11 -68.5v-379q0 -133 -60 -196t-175 -63
q-68 0 -116.5 15.5t-75.5 39t-42.5 61t-19.5 71.5t-4 80v371q0 56 -11.5 69t-61.5 13v41h267v-41q-49 0 -60 -12.5t-11 -69.5z" />
    <glyph glyph-name="Uacute" unicode="&#xda;" horiz-adv-x="698" 
d="M321 827l206 130l40 -80l-226 -90zM228 623v-367q0 -32 2.5 -56.5t11.5 -55.5t25 -51.5t46.5 -34.5t71.5 -14q43 0 74 16t46.5 37t24.5 53t10.5 54t1.5 50v369q0 56 -11.5 69t-59.5 13v41h196v-41q-47 0 -58 -13.5t-11 -68.5v-379q0 -133 -60 -196t-175 -63
q-68 0 -116.5 15.5t-75.5 39t-42.5 61t-19.5 71.5t-4 80v371q0 56 -11.5 69t-61.5 13v41h267v-41q-49 0 -60 -12.5t-11 -69.5z" />
    <glyph glyph-name="Ucircumflex" unicode="&#xdb;" horiz-adv-x="698" 
d="M533 801l-163 59h-2l-163 -59l-22 38l185 104h3l184 -104zM228 623v-367q0 -32 2.5 -56.5t11.5 -55.5t25 -51.5t46.5 -34.5t71.5 -14q43 0 74 16t46.5 37t24.5 53t10.5 54t1.5 50v369q0 56 -11.5 69t-59.5 13v41h196v-41q-47 0 -58 -13.5t-11 -68.5v-379q0 -133 -60 -196
t-175 -63q-68 0 -116.5 15.5t-75.5 39t-42.5 61t-19.5 71.5t-4 80v371q0 56 -11.5 69t-61.5 13v41h267v-41q-49 0 -60 -12.5t-11 -69.5z" />
    <glyph glyph-name="Udieresis" unicode="&#xdc;" horiz-adv-x="698" 
d="M260 925q24 0 40 -17t16 -40t-16.5 -40t-39.5 -17q-24 0 -41 17t-17 40q0 24 17 40.5t41 16.5zM485 925q24 0 40.5 -17t16.5 -40t-17 -40t-40 -17q-24 0 -40.5 17t-16.5 40q0 24 16.5 40.5t40.5 16.5zM228 623v-367q0 -32 2.5 -56.5t11.5 -55.5t25 -51.5t46.5 -34.5
t71.5 -14q43 0 74 16t46.5 37t24.5 53t10.5 54t1.5 50v369q0 56 -11.5 69t-59.5 13v41h196v-41q-47 0 -58 -13.5t-11 -68.5v-379q0 -133 -60 -196t-175 -63q-68 0 -116.5 15.5t-75.5 39t-42.5 61t-19.5 71.5t-4 80v371q0 56 -11.5 69t-61.5 13v41h267v-41q-49 0 -60 -12.5
t-11 -69.5z" />
    <glyph glyph-name="Yacute" unicode="&#xdd;" horiz-adv-x="642" 
d="M294 827l206 130l39 -80l-225 -90zM267 123v203l-173 310q-25 45 -39.5 57t-42.5 12v41h254v-41q-56 0 -56 -21q0 -12 18 -46l133 -246h3l125 244q18 36 18 50q0 19 -46 19v41h172v-41q-28 0 -41 -10.5t-33 -50.5l-170 -317v-204q0 -56 14.5 -69.5t75.5 -13.5v-40h-302
v40q62 0 76 13.5t14 69.5z" />
    <glyph glyph-name="Thorn" unicode="&#xde;" horiz-adv-x="634" 
d="M32 0v40q55 0 68 14t13 70v499q0 56 -13 69t-68 13v41h295v-41q-62 0 -77 -10.5t-15 -51.5v-37h87q23 0 38.5 -0.5t47 -4.5t53.5 -11t49.5 -22t44.5 -36t29 -54t12 -75q0 -57 -21 -99t-50.5 -64t-73 -34.5t-76 -15.5t-73.5 -3h-67v-72q0 -52 13.5 -63.5t78.5 -11.5v-40
h-295zM310 556h-75v-319h66q95 0 132 43.5t37 120.5q0 51 -15 84.5t-42 47.5t-50 18.5t-53 4.5z" />
    <glyph glyph-name="germandbls" unicode="&#xdf;" horiz-adv-x="621" 
d="M80 114v463q0 93 57.5 147t174.5 54q123 0 178 -47t55 -114q0 -70 -52.5 -107t-125.5 -45v-5q29 -3 52 -7.5t56 -19.5t55.5 -37t38.5 -63.5t16 -96.5q0 -121 -60 -185t-150 -64q-67 0 -111 28.5t-44 79.5q0 22 10 35.5t26 13.5q35 0 50 -57q20 -55 65 -55q9 0 18 2.5
t23.5 14.5t25 32.5t18.5 60.5t8 94q0 181 -150 200q-24 4 -37 4v40q31 2 53 7.5t46 19t37 42t13 70.5q0 48 -27 83t-87 35q-117 0 -117 -158v-579h-171v35q37 0 46.5 13t9.5 66z" />
    <glyph glyph-name="agrave" unicode="&#xe0;" horiz-adv-x="537" 
d="M92 673l50 73l159 -145l-24 -35zM342 324v46q0 108 -87 108q-70 0 -100 -79q-13 -34 -52 -34q-43 0 -43 41q0 43 53 77.5t150 34.5q43 0 74.5 -7t60.5 -24t44 -52t15 -86v-241q0 -73 32 -73q16 0 29 8l8 -34q-38 -15 -88 -15q-70 0 -89 56h-4q-63 -63 -158 -63
q-61 0 -106 34.5t-45 98.5q0 80 72 125q60 38 166 62zM342 94v191q-40 -12 -68 -23.5t-57.5 -29t-45 -41.5t-15.5 -54q0 -53 25.5 -73t59.5 -20q53 0 101 50z" />
    <glyph glyph-name="aacute" unicode="&#xe1;" horiz-adv-x="537" 
d="M222 601l159 145l50 -73l-185 -107zM342 324v46q0 108 -87 108q-70 0 -100 -79q-13 -34 -52 -34q-43 0 -43 41q0 43 53 77.5t150 34.5q43 0 74.5 -7t60.5 -24t44 -52t15 -86v-241q0 -73 32 -73q16 0 29 8l8 -34q-38 -15 -88 -15q-70 0 -89 56h-4q-63 -63 -158 -63
q-61 0 -106 34.5t-45 98.5q0 80 72 125q60 38 166 62zM342 94v191q-40 -12 -68 -23.5t-57.5 -29t-45 -41.5t-15.5 -54q0 -53 25.5 -73t59.5 -20q53 0 101 50z" />
    <glyph glyph-name="acircumflex" unicode="&#xe2;" horiz-adv-x="537" 
d="M255 647h-2l-127 -71l-23 35l149 123h4l149 -123l-23 -35zM342 324v46q0 108 -87 108q-70 0 -100 -79q-13 -34 -52 -34q-43 0 -43 41q0 43 53 77.5t150 34.5q43 0 74.5 -7t60.5 -24t44 -52t15 -86v-241q0 -73 32 -73q16 0 29 8l8 -34q-38 -15 -88 -15q-70 0 -89 56h-4
q-63 -63 -158 -63q-61 0 -106 34.5t-45 98.5q0 80 72 125q60 38 166 62zM342 94v191q-40 -12 -68 -23.5t-57.5 -29t-45 -41.5t-15.5 -54q0 -53 25.5 -73t59.5 -20q53 0 101 50z" />
    <glyph glyph-name="atilde" unicode="&#xe3;" horiz-adv-x="537" 
d="M366 710h45q-1 -48 -23.5 -81t-70.5 -33q-24 0 -40.5 6.5t-56.5 30.5q-12 8 -23.5 11.5t-23 2.5t-19.5 -13.5t-11 -34.5h-45q2 54 25 84t68 30q36 0 75 -23q37 -21 45 -24.5t19 -3.5q28 0 36 48zM342 324v46q0 108 -87 108q-70 0 -100 -79q-13 -34 -52 -34q-43 0 -43 41
q0 43 53 77.5t150 34.5q43 0 74.5 -7t60.5 -24t44 -52t15 -86v-241q0 -73 32 -73q16 0 29 8l8 -34q-38 -15 -88 -15q-70 0 -89 56h-4q-63 -63 -158 -63q-61 0 -106 34.5t-45 98.5q0 80 72 125q60 38 166 62zM342 94v191q-40 -12 -68 -23.5t-57.5 -29t-45 -41.5t-15.5 -54
q0 -53 25.5 -73t59.5 -20q53 0 101 50z" />
    <glyph glyph-name="adieresis" unicode="&#xe4;" horiz-adv-x="537" 
d="M342 324v46q0 108 -87 108q-70 0 -100 -79q-13 -34 -52 -34q-43 0 -43 41q0 43 53 77.5t150 34.5q43 0 74.5 -7t60.5 -24t44 -52t15 -86v-241q0 -73 32 -73q16 0 29 8l8 -34q-38 -15 -88 -15q-70 0 -89 56h-4q-63 -63 -158 -63q-61 0 -106 34.5t-45 98.5q0 80 72 125
q60 38 166 62zM342 94v191q-40 -12 -68 -23.5t-57.5 -29t-45 -41.5t-15.5 -54q0 -53 25.5 -73t59.5 -20q53 0 101 50zM166 701q23 0 38 -16t15 -38t-15.5 -38t-37.5 -16q-23 0 -38.5 15.5t-15.5 38.5t15.5 38.5t38.5 15.5zM353 701q23 0 38 -16t15 -38t-15.5 -38t-37.5 -16
q-23 0 -38.5 15.5t-15.5 38.5t15.5 38.5t38.5 15.5z" />
    <glyph glyph-name="aring" unicode="&#xe5;" horiz-adv-x="537" 
d="M257 738q41 0 69.5 -26t28.5 -63q0 -38 -28.5 -64t-69.5 -26q-40 0 -68.5 26t-28.5 64q0 37 28.5 63t68.5 26zM258 698q-20 0 -33.5 -15t-13.5 -34q0 -20 14 -35t33 -15q20 0 34 15t14 35t-14 34.5t-34 14.5zM342 324v46q0 108 -87 108q-70 0 -100 -79q-13 -34 -52 -34
q-43 0 -43 41q0 43 53 77.5t150 34.5q43 0 74.5 -7t60.5 -24t44 -52t15 -86v-241q0 -73 32 -73q16 0 29 8l8 -34q-38 -15 -88 -15q-70 0 -89 56h-4q-63 -63 -158 -63q-61 0 -106 34.5t-45 98.5q0 80 72 125q60 38 166 62zM342 94v191q-40 -12 -68 -23.5t-57.5 -29t-45 -41.5
t-15.5 -54q0 -53 25.5 -73t59.5 -20q53 0 101 50z" />
    <glyph glyph-name="ae" unicode="&#xe6;" horiz-adv-x="820" 
d="M746 128l37 -18q-68 -123 -204 -123q-123 0 -187 73h-3q-80 -73 -199 -73q-60 0 -108.5 33t-48.5 100q0 140 238 187l68 17v45q0 109 -86 109q-23 0 -41 -7.5t-29 -21t-17 -24t-12 -26.5q-15 -34 -52 -34q-21 0 -32 12t-11 31q0 39 50 74.5t151 35.5q54 0 95 -20t56 -62
h2q25 37 66 59.5t88 22.5q54 0 94.5 -19t63 -47t37 -65.5t18.5 -68t4 -60.5h-329q0 -106 31 -159q38 -66 113 -66q54 0 91 28t56 67zM455 299h212q0 179 -102 179q-17 0 -33.5 -7.5t-34 -25t-29 -55.5t-13.5 -91zM339 239v46q-186 -52 -186 -148q0 -46 25.5 -69.5
t65.5 -23.5q34 0 67.5 15.5t54.5 38.5q-27 57 -27 141z" />
    <glyph glyph-name="ccedilla" unicode="&#xe7;" horiz-adv-x="488" 
d="M428 120l36 -20q-65 -104 -168 -111l-20 -36q41 -2 61 -23.5t20 -49.5q0 -38 -28.5 -62.5t-78.5 -24.5q-56 0 -100 29l20 37q32 -16 60 -16q25 0 40.5 12t15.5 31q0 17 -17 29.5t-45 9.5l-14 12l29 52q-100 9 -150.5 84t-50.5 183q0 118 65.5 190t178.5 72
q75 0 122.5 -33.5t47.5 -74.5q0 -21 -10 -33.5t-28 -12.5q-15 0 -27 10t-17.5 20t-14.5 29q-22 55 -71 55q-52 0 -88.5 -55.5t-36.5 -164.5q0 -69 14.5 -117t37.5 -69t43.5 -29t41.5 -8q78 0 132 85z" />
    <glyph glyph-name="egrave" unicode="&#xe8;" horiz-adv-x="523" 
d="M89 673l49 73l160 -145l-25 -35zM449 128l37 -18q-67 -123 -204 -123q-49 0 -90.5 13.5t-77 43.5t-56 86t-20.5 134q0 68 23.5 123.5t77.5 93t131 37.5q53 0 93 -18.5t63 -46t37.5 -64.5t19 -68t4.5 -63h-328q0 -107 36 -164q39 -61 107 -61q50 0 88 26.5t59 68.5z
M159 299h211q0 28 -3 53t-12.5 56.5t-31.5 50.5t-54 19q-43 0 -75 -41.5t-35 -137.5z" />
    <glyph glyph-name="eacute" unicode="&#xe9;" horiz-adv-x="523" 
d="M228 601l159 145l51 -73l-186 -107zM449 128l37 -18q-67 -123 -204 -123q-49 0 -90.5 13.5t-77 43.5t-56 86t-20.5 134q0 68 23.5 123.5t77.5 93t131 37.5q53 0 93 -18.5t63 -46t37.5 -64.5t19 -68t4.5 -63h-328q0 -107 36 -164q39 -61 107 -61q50 0 88 26.5t59 68.5z
M159 299h211q0 28 -3 53t-12.5 56.5t-31.5 50.5t-54 19q-43 0 -75 -41.5t-35 -137.5z" />
    <glyph glyph-name="ecircumflex" unicode="&#xea;" horiz-adv-x="523" 
d="M263 647h-2l-128 -71l-22 35l148 123h5l149 -123l-23 -35zM449 128l37 -18q-67 -123 -204 -123q-49 0 -90.5 13.5t-77 43.5t-56 86t-20.5 134q0 68 23.5 123.5t77.5 93t131 37.5q53 0 93 -18.5t63 -46t37.5 -64.5t19 -68t4.5 -63h-328q0 -107 36 -164q39 -61 107 -61
q50 0 88 26.5t59 68.5zM159 299h211q0 28 -3 53t-12.5 56.5t-31.5 50.5t-54 19q-43 0 -75 -41.5t-35 -137.5z" />
    <glyph glyph-name="edieresis" unicode="&#xeb;" horiz-adv-x="523" 
d="M449 128l37 -18q-67 -123 -204 -123q-49 0 -90.5 13.5t-77 43.5t-56 86t-20.5 134q0 68 23.5 123.5t77.5 93t131 37.5q53 0 93 -18.5t63 -46t37.5 -64.5t19 -68t4.5 -63h-328q0 -107 36 -164q39 -61 107 -61q50 0 88 26.5t59 68.5zM159 299h211q0 28 -3 53t-12.5 56.5
t-31.5 50.5t-54 19q-43 0 -75 -41.5t-35 -137.5zM174 701q23 0 38 -16t15 -38t-15.5 -38t-37.5 -16q-23 0 -38.5 15.5t-15.5 38.5t15.5 38.5t38.5 15.5zM360 701q23 0 38.5 -16t15.5 -38q0 -23 -16 -38.5t-38 -15.5t-38 15.5t-16 38.5t15.5 38.5t38.5 15.5z" />
    <glyph glyph-name="igrave" unicode="&#xec;" horiz-adv-x="300" 
d="M-9 673l50 73l160 -145l-25 -35zM200 518l13 -7v-398q0 -52 10 -65t54 -13v-35h-247v35q47 0 57.5 12.5t10.5 66.5v250q0 53 -9.5 63.5t-58.5 10.5v32q84 9 170 48z" />
    <glyph glyph-name="iacute" unicode="&#xed;" horiz-adv-x="300" 
d="M89 601l160 145l50 -73l-185 -107zM200 518l13 -7v-398q0 -52 10 -65t54 -13v-35h-247v35q47 0 57.5 12.5t10.5 66.5v250q0 53 -9.5 63.5t-58.5 10.5v32q84 9 170 48z" />
    <glyph glyph-name="icircumflex" unicode="&#xee;" horiz-adv-x="300" 
d="M147 647h-2l-128 -71l-23 35l149 123h5l149 -123l-23 -35zM200 518l13 -7v-398q0 -52 10 -65t54 -13v-35h-247v35q47 0 57.5 12.5t10.5 66.5v250q0 53 -9.5 63.5t-58.5 10.5v32q84 9 170 48z" />
    <glyph glyph-name="idieresis" unicode="&#xef;" horiz-adv-x="300" 
d="M57 701q23 0 38 -16t15 -38q0 -23 -15.5 -38.5t-37.5 -15.5q-23 0 -38.5 15.5t-15.5 38.5t15.5 38.5t38.5 15.5zM244 701q23 0 38 -16t15 -38q0 -23 -15.5 -38.5t-37.5 -15.5t-38 15.5t-16 38.5t15.5 38.5t38.5 15.5zM200 518l13 -7v-398q0 -52 10 -65t54 -13v-35h-247
v35q47 0 57.5 12.5t10.5 66.5v250q0 53 -9.5 63.5t-58.5 10.5v32q84 9 170 48z" />
    <glyph glyph-name="eth" unicode="&#xf0;" horiz-adv-x="570" 
d="M483 744l-107 -59q79 -63 117.5 -161t38.5 -211q0 -41 -3 -75t-12 -73.5t-26.5 -69.5t-43.5 -55.5t-67.5 -39t-94.5 -13.5q-247 0 -247 269q0 118 59 190t177 72q98 0 138 -71l4 1q-20 78 -47 122.5t-67 81.5l-151 -76l-16 31l136 71q-65 46 -164 71l43 29
q111 -18 191 -69l125 65zM286 478q-126 0 -126 -225t126 -225q70 0 98 60t28 167q0 223 -126 223z" />
    <glyph glyph-name="ntilde" unicode="&#xf1;" horiz-adv-x="604" 
d="M413 710h45q-1 -48 -23.5 -81t-70.5 -33q-23 0 -39 6.5t-57 30.5q-15 10 -29.5 14t-29 -7t-18.5 -41h-45q1 53 24.5 83.5t68.5 30.5q23 0 38 -5.5t58 -29.5q25 -16 42 -16q31 0 36 48zM206 429h2q73 89 167 89q156 0 156 -165v-242q0 -49 9 -62.5t44 -13.5v-35h-219v35
q36 0 44 12.5t8 66.5v236q0 61 -19.5 88.5t-62.5 27.5q-59 0 -127 -94v-259q0 -54 7.5 -66t42.5 -12v-35h-228v35q43 0 53.5 13t10.5 66v248q0 51 -10.5 64t-53.5 12v32q89 12 156 48l16 -8z" />
    <glyph glyph-name="ograve" unicode="&#xf2;" horiz-adv-x="570" 
d="M114 673l50 73l160 -145l-25 -35zM285 -13q-247 0 -247 269q0 120 60.5 191t186.5 71q130 0 188.5 -73.5t58.5 -188.5q0 -143 -68 -208q-65 -61 -179 -61zM284 478q-126 0 -126 -225t126 -225t126 225t-126 225z" />
    <glyph glyph-name="oacute" unicode="&#xf3;" horiz-adv-x="570" 
d="M246 601l159 145l51 -73l-186 -107zM285 -13q-247 0 -247 269q0 120 60.5 191t186.5 71q130 0 188.5 -73.5t58.5 -188.5q0 -143 -68 -208q-65 -61 -179 -61zM284 478q-126 0 -126 -225t126 -225t126 225t-126 225z" />
    <glyph glyph-name="ocircumflex" unicode="&#xf4;" horiz-adv-x="570" 
d="M286 647h-2l-127 -71l-23 35l149 123h4l149 -123l-22 -35zM285 -13q-247 0 -247 269q0 120 60.5 191t186.5 71q130 0 188.5 -73.5t58.5 -188.5q0 -143 -68 -208q-65 -61 -179 -61zM284 478q-126 0 -126 -225t126 -225t126 225t-126 225z" />
    <glyph glyph-name="otilde" unicode="&#xf5;" horiz-adv-x="570" 
d="M396 710h46q-1 -48 -23.5 -81t-70.5 -33q-17 0 -31.5 4.5t-25.5 10t-40 22.5q-16 11 -30.5 14.5t-28.5 -7.5t-17 -41h-46q1 53 25 83.5t69 30.5q36 0 73 -23q37 -20 46 -24t19 -4q30 0 35 48zM285 -13q-247 0 -247 269q0 120 60.5 191t186.5 71q130 0 188.5 -73.5
t58.5 -188.5q0 -143 -68 -208q-65 -61 -179 -61zM284 478q-126 0 -126 -225t126 -225t126 225t-126 225z" />
    <glyph glyph-name="odieresis" unicode="&#xf6;" horiz-adv-x="570" 
d="M285 -13q-247 0 -247 269q0 120 60.5 191t186.5 71q130 0 188.5 -73.5t58.5 -188.5q0 -143 -68 -208q-65 -61 -179 -61zM284 478q-126 0 -126 -225t126 -225t126 225t-126 225zM192 701q23 0 38.5 -16t15.5 -38q0 -23 -16 -38.5t-38 -15.5t-38 15.5t-16 38.5t15.5 38.5
t38.5 15.5zM380 701q23 0 37.5 -16t14.5 -38q0 -23 -15 -38.5t-37 -15.5q-23 0 -38.5 15.5t-15.5 38.5t15.5 38.5t38.5 15.5z" />
    <glyph glyph-name="divide" unicode="&#xf7;" horiz-adv-x="1000" 
d="M500 566q-30 0 -50.5 21.5t-20.5 49.5q0 29 21 50t50 21t50 -21t21 -50t-21 -50t-50 -21zM120 389h760v-42h-760v42zM500 28q-30 0 -50.5 21.5t-20.5 49.5q0 29 21 50t50 21t50 -21t21 -50t-21 -50t-50 -21z" />
    <glyph glyph-name="oslash" unicode="&#xf8;" horiz-adv-x="570" 
d="M531 506l-55 -71q56 -62 56 -179q0 -146 -71 -211q-65 -58 -176 -58q-81 0 -157 49l-60 -65l-29 28l56 70q-57 74 -57 187q0 120 60.5 191t186.5 71q92 0 158 -50l59 66zM185 153l188 248q-35 77 -88 77q-62 0 -93.5 -61t-31.5 -144q0 -82 25 -120zM386 350l-188 -247
q34 -75 87 -75q60 0 92.5 61t32.5 149q0 78 -24 112z" />
    <glyph glyph-name="ugrave" unicode="&#xf9;" horiz-adv-x="600" 
d="M108 673l50 73l160 -145l-25 -35zM513 511v-399q0 -53 9.5 -65.5t52.5 -12.5v-32q-98 0 -158 -15l-11 6l-5 69h-3q-64 -75 -159 -75q-84 0 -121.5 46t-37.5 136v196q0 50 -8.5 61.5t-46.5 11.5v32q83 12 154 48l16 -7v-329q0 -24 1.5 -40.5t9 -42.5t27 -40.5t49.5 -14.5
q63 0 117 73v249q0 50 -8.5 61t-45.5 11v32q83 12 153 48z" />
    <glyph glyph-name="uacute" unicode="&#xfa;" horiz-adv-x="600" 
d="M268 601l159 145l50 -73l-185 -107zM513 511v-399q0 -53 9.5 -65.5t52.5 -12.5v-32q-98 0 -158 -15l-11 6l-5 69h-3q-64 -75 -159 -75q-84 0 -121.5 46t-37.5 136v196q0 50 -8.5 61.5t-46.5 11.5v32q83 12 154 48l16 -7v-329q0 -24 1.5 -40.5t9 -42.5t27 -40.5
t49.5 -14.5q63 0 117 73v249q0 50 -8.5 61t-45.5 11v32q83 12 153 48z" />
    <glyph glyph-name="ucircumflex" unicode="&#xfb;" horiz-adv-x="600" 
d="M292 647h-2l-127 -71l-23 35l149 123h4l149 -123l-22 -35zM513 511v-399q0 -53 9.5 -65.5t52.5 -12.5v-32q-98 0 -158 -15l-11 6l-5 69h-3q-64 -75 -159 -75q-84 0 -121.5 46t-37.5 136v196q0 50 -8.5 61.5t-46.5 11.5v32q83 12 154 48l16 -7v-329q0 -24 1.5 -40.5
t9 -42.5t27 -40.5t49.5 -14.5q63 0 117 73v249q0 50 -8.5 61t-45.5 11v32q83 12 153 48z" />
    <glyph glyph-name="udieresis" unicode="&#xfc;" horiz-adv-x="600" 
d="M200 701q23 0 38.5 -16t15.5 -38q0 -23 -16 -38.5t-38 -15.5t-37.5 15.5t-15.5 38.5t15 38.5t38 15.5zM387 701q23 0 38.5 -16t15.5 -38q0 -23 -15.5 -38.5t-38.5 -15.5t-38.5 15.5t-15.5 38.5t15.5 38.5t38.5 15.5zM513 511v-399q0 -53 9.5 -65.5t52.5 -12.5v-32
q-98 0 -158 -15l-11 6l-5 69h-3q-64 -75 -159 -75q-84 0 -121.5 46t-37.5 136v196q0 50 -8.5 61.5t-46.5 11.5v32q83 12 154 48l16 -7v-329q0 -24 1.5 -40.5t9 -42.5t27 -40.5t49.5 -14.5q63 0 117 73v249q0 50 -8.5 61t-45.5 11v32q83 12 153 48z" />
    <glyph glyph-name="yacute" unicode="&#xfd;" horiz-adv-x="545" 
d="M270 601l159 145l51 -73l-186 -107zM213 -125l46 131l-179 394q-21 49 -32.5 59.5t-40.5 10.5v35h226v-35q-46 0 -46 -21q0 -11 11 -38l114 -277h2l110 294q7 18 7 24q0 18 -45 18v35h154v-35q-27 0 -38 -9t-24 -43l-211 -546q-31 -70 -68.5 -106t-92.5 -36
q-52 0 -83.5 24.5t-31.5 56.5q0 16 11 27.5t25 11.5q35 0 54 -39q17 -38 40 -38q46 0 92 102z" />
    <glyph glyph-name="thorn" unicode="&#xfe;" horiz-adv-x="596" 
d="M206 770v-317h2q60 65 147 65q90 0 147 -69t57 -191q0 -66 -14.5 -116t-36 -78.5t-51.5 -46.5t-56.5 -23.5t-54.5 -5.5q-84 0 -138 54h-2v-191q0 -50 10 -62.5t52 -12.5v-35h-238v35q43 0 52.5 12.5t9.5 62.5v775q0 48 -10 60t-53 12v32q87 11 163 48zM206 396v-295
q50 -65 113 -65q118 0 118 225q0 21 -1 39t-7.5 51.5t-17.5 56.5t-34.5 41t-55.5 18q-57 0 -115 -71z" />
    <glyph glyph-name="ydieresis" unicode="&#xff;" horiz-adv-x="545" 
d="M204 701q23 0 38.5 -16t15.5 -38q0 -23 -16 -38.5t-38 -15.5t-37.5 15.5t-15.5 38.5t15 38.5t38 15.5zM391 701q25 0 39.5 -16t14.5 -38q0 -23 -15.5 -38.5t-38.5 -15.5t-38.5 15.5t-15.5 38.5t15.5 38.5t38.5 15.5zM213 -125l46 131l-179 394q-21 49 -32.5 59.5
t-40.5 10.5v35h226v-35q-46 0 -46 -21q0 -11 11 -38l114 -277h2l110 294q7 18 7 24q0 18 -45 18v35h154v-35q-27 0 -38 -9t-24 -43l-211 -546q-31 -70 -68.5 -106t-92.5 -36q-52 0 -83.5 24.5t-31.5 56.5q0 16 11 27.5t25 11.5q35 0 54 -39q17 -38 40 -38q46 0 92 102z" />
    <glyph glyph-name="Amacron" unicode="&#x100;" horiz-adv-x="652" 
d="M167 829v62h322v-62h-322zM448 106l-39 124h-237l-31 -113q-10 -37 -10 -50q0 -16 11 -21.5t40 -5.5v-40h-169v40q26 0 38.5 11.5t23.5 45.5l203 664h72l222 -650q15 -44 27.5 -57.5t39.5 -13.5v-40h-235v40q29 0 40.5 6t11.5 21q0 13 -8 39zM189 280h204l-106 328h-3z
" />
    <glyph glyph-name="amacron" unicode="&#x101;" horiz-adv-x="537" 
d="M134 621v60h270v-60h-270zM342 324v46q0 108 -87 108q-70 0 -100 -79q-13 -34 -52 -34q-43 0 -43 41q0 43 53 77.5t150 34.5q43 0 74.5 -7t60.5 -24t44 -52t15 -86v-241q0 -73 32 -73q16 0 29 8l8 -34q-38 -15 -88 -15q-70 0 -89 56h-4q-63 -63 -158 -63q-61 0 -106 34.5
t-45 98.5q0 80 72 125q60 38 166 62zM342 94v191q-40 -12 -68 -23.5t-57.5 -29t-45 -41.5t-15.5 -54q0 -53 25.5 -73t59.5 -20q53 0 101 50z" />
    <glyph glyph-name="Emacron" unicode="&#x112;" horiz-adv-x="583" 
d="M132 829v62h322v-62h-322zM560 172l-34 -172h-494v40q54 0 67.5 14t13.5 69v500q0 55 -13 68.5t-68 13.5v41h468l32 -166h-52q-19 81 -34.5 99t-58.5 18h-116q-24 0 -30 -8.5t-6 -38.5v-238h108q34 0 44 18t10 84h49v-256h-49q0 71 -9 87.5t-44 16.5h-109v-267
q0 -29 6 -37t22 -8h150q44 0 60 19.5t35 102.5h52z" />
    <glyph glyph-name="emacron" unicode="&#x113;" horiz-adv-x="523" 
d="M127 621v60h269v-60h-269zM449 128l37 -18q-67 -123 -204 -123q-49 0 -90.5 13.5t-77 43.5t-56 86t-20.5 134q0 68 23.5 123.5t77.5 93t131 37.5q53 0 93 -18.5t63 -46t37.5 -64.5t19 -68t4.5 -63h-328q0 -107 36 -164q39 -61 107 -61q50 0 88 26.5t59 68.5zM159 299h211
q0 28 -3 53t-12.5 56.5t-31.5 50.5t-54 19q-43 0 -75 -41.5t-35 -137.5z" />
    <glyph glyph-name="Ecaron" unicode="&#x11a;" horiz-adv-x="583" 
d="M294 885l162 58l23 -38l-185 -104h-2l-185 104l22 38l163 -58h2zM526 0h-494v40q54 0 67.5 14t13.5 69v500q0 55 -13 68.5t-68 13.5v41h468l32 -166h-52q-19 81 -34.5 99t-58.5 18h-116q-24 0 -30 -8.5t-6 -38.5v-238h108q34 0 44 18t10 84h49v-256h-49q0 71 -9 87.5
t-44 16.5h-109v-267q0 -29 6 -37t22 -8h150q44 0 60 19.5t35 102.5h52z" />
    <glyph glyph-name="ecaron" unicode="&#x11b;" horiz-adv-x="523" 
d="M261 663h2l127 71l23 -35l-149 -123h-4l-149 123l23 35zM487 258h-328q0 -107 36 -164q39 -61 107 -61q52 0 94 30q34 26 53 65l37 -18q-29 -53 -71 -83q-57 -40 -133 -40q-119 0 -184 74q-60 71 -60 203q0 122 73 195q64 59 159 59q101 0 158 -67q59 -72 59 -193z
M159 299h211q0 89 -28 137q-28 42 -73 42q-44 0 -75 -42q-32 -47 -35 -137z" />
    <glyph glyph-name="Itilde" unicode="&#x128;" horiz-adv-x="354" 
d="M48 812h-47q3 53 29.5 83.5t70.5 30.5q47 0 86 -22l24 -13q29 -16 51 -16q35 0 46 48h46q-3 -53 -29.5 -83.5t-70.5 -30.5q-46 0 -84 21l-24 13q-31 16 -54 16q-34 0 -44 -47zM116 123v500q0 56 -13 69t-72 13v41h293v-41q-59 0 -72.5 -13t-13.5 -69v-500q0 -55 14 -69
t72 -14v-40h-294v40q59 0 72.5 13.5t13.5 69.5z" />
    <glyph glyph-name="itilde" unicode="&#x129;" horiz-adv-x="300" 
d="M214 596h-1q-33 0 -73 23l-23 14q-22 14 -42 14q-30 0 -36 -48h-45q1 53 24.5 83.5t68.5 30.5q37 0 74 -23l22 -12q25 -16 42 -16q31 0 36 48h46q-1 -51 -24.5 -82.5t-68.5 -31.5zM213 511v-398q0 -52 10 -65t54 -13v-35h-247v35q47 0 57.5 12.5t10.5 66.5v250
q0 53 -9.5 63.5t-58.5 10.5v32q84 9 170 48z" />
    <glyph glyph-name="Imacron" unicode="&#x12a;" horiz-adv-x="354" 
d="M18 829v62h322v-62h-322zM30 0v40q59 0 72.5 13.5t13.5 69.5v500q0 56 -13 69t-72 13v41h293v-41q-59 0 -72.5 -13t-13.5 -69v-500q0 -55 14 -69t72 -14v-40h-294z" />
    <glyph glyph-name="imacron" unicode="&#x12b;" horiz-adv-x="300" 
d="M15 621v60h270v-60h-270zM200 518l13 -7v-398q0 -52 10 -65t54 -13v-35h-247v35q47 0 57.5 12.5t10.5 66.5v250q0 53 -9.5 63.5t-58.5 10.5v32q84 9 170 48z" />
    <glyph glyph-name="dotlessi" unicode="&#x131;" horiz-adv-x="300" 
d="M200 518l13 -7v-398q0 -52 10 -65t54 -13v-35h-247v35q47 0 57.5 12.5t10.5 66.5v250q0 53 -9.5 63.5t-58.5 10.5v32q84 9 170 48z" />
    <glyph glyph-name="Lslash" unicode="&#x141;" horiz-adv-x="582" 
d="M235 621v-182l125 58v-49l-125 -58v-293q0 -31 6.5 -39t26.5 -8h143q46 0 62 20.5t37 110.5h53l-35 -181h-496v40q54 0 67.5 14t13.5 70v219l-89 -42v49l89 41v232q0 55 -13 68.5t-68 13.5v41h285v-41q-57 0 -69.5 -13t-12.5 -71z" />
    <glyph glyph-name="lslash" unicode="&#x142;" horiz-adv-x="300" 
d="M212 770v-298l72 44v-43l-72 -44v-316q0 -52 10 -65t54 -13v-35h-247v35q47 0 58 13.5t11 65.5v245l-76 -44v44l76 44v223q0 48 -11 60t-58 12v32q91 11 169 48z" />
    <glyph glyph-name="eng" unicode="&#x14b;" horiz-adv-x="604" 
d="M30 0v35q43 0 53.5 13t10.5 66v248q0 51 -10.5 64t-53.5 12v32q89 12 156 48l16 -8l4 -81h2q73 89 166 89q76 0 116 -40q41 -43 41 -128v-308q0 -166 -44 -238q-46 -74 -147 -74q-64 0 -104 30t-40 66q0 18 10.5 29t27.5 11q21 0 33 -11.5t24 -37.5q20 -46 51 -46
q38 0 56 54q18 55 18 200q1 220 1 321q0 65 -22 93q-22 27 -61 27q-29 0 -63.5 -27.5t-62.5 -66.5v-259q0 -54 7.5 -66t42.5 -12v-35h-228z" />
    <glyph glyph-name="Omacron" unicode="&#x14c;" horiz-adv-x="728" 
d="M204 829v62h323v-62h-323zM363 -15q-164 0 -241 104t-77 284q0 82 17 150t53.5 122.5t99.5 85t148 30.5q74 0 131.5 -23t92 -60t57 -89t31 -104.5t8.5 -111.5q0 -63 -9 -117t-32 -105t-58.5 -87t-91.5 -57.5t-129 -21.5zM363 715q-81 0 -132 -64q-59 -78 -59 -278
q0 -341 190 -341q83 0 134 67q58 89 58 274q0 42 -2.5 77.5t-9 77t-20.5 73t-34 58.5t-52 41.5t-73 14.5z" />
    <glyph glyph-name="omacron" unicode="&#x14d;" horiz-adv-x="570" 
d="M151 621v60h269v-60h-269zM285 -13q-247 0 -247 269q0 120 60.5 191t186.5 71q130 0 188.5 -73.5t58.5 -188.5q0 -143 -68 -208q-65 -61 -179 -61zM284 478q-126 0 -126 -225t126 -225t126 225t-126 225z" />
    <glyph glyph-name="OE" unicode="&#x152;" horiz-adv-x="918" 
d="M679 362h-93v-267q0 -29 6 -37t23 -8h133q44 0 59.5 19.5t35.5 102.5h52l-34 -172h-376q-40 -7 -62 -9q-28 -3 -60 -3q-47 0 -88.5 9.5t-85 35.5t-74.5 67.5t-50.5 111.5t-19.5 161q0 102 25 178t70 120t101.5 65t125.5 21q65 0 114 -11h361l31 -166h-52q-19 81 -34 99
t-59 18h-108q-22 0 -28 -8.5t-6 -38.5v-238h92q34 0 43.5 17.5t9.5 84.5h51v-256h-51q0 71 -9 87.5t-43 16.5zM365 712q-58 0 -98 -28t-59.5 -79.5t-27 -106t-7.5 -125.5q0 -339 191 -339q47 0 70 14.5t25 56.5q5 133 5 269q0 157 -6 271q-2 39 -24.5 53t-68.5 14z" />
    <glyph glyph-name="oe" unicode="&#x153;" horiz-adv-x="894" 
d="M468 417h3q24 46 69 73.5t98 27.5q48 0 86 -14t61 -38.5t38.5 -51t22 -58.5t9 -54t2.5 -44h-329q0 -37 5 -69.5t18.5 -71t44.5 -61.5t77 -23q41 0 74.5 19t47.5 37.5t24 38.5l37 -18q-64 -123 -204 -123q-126 2 -180 109h-3q-61 -109 -183 -109q-121 0 -184.5 76
t-63.5 193q0 116 63.5 189t184.5 73q117 0 182 -101zM288 478q-34 0 -59 -17t-38 -41.5t-20.5 -58t-9.5 -58t-2 -50.5q0 -30 4 -61.5t16 -72t39.5 -66t68.5 -25.5q57 0 91 57q33 60 33 180q0 58 -10.5 103t-39 77.5t-73.5 32.5zM528 299h211q0 179 -101 179q-11 0 -21.5 -2
t-27 -12.5t-28.5 -28t-21.5 -53t-11.5 -83.5z" />
    <glyph glyph-name="Scaron" unicode="&#x160;" horiz-adv-x="526" 
d="M253 885h2l163 58l22 -38l-184 -104h-3l-185 104l22 38zM29 181l51 12q22 -90 59.5 -124t101.5 -34q57 0 94 36t37 93q0 31 -9 55.5t-33 47.5t-43.5 37.5t-62.5 42.5q-5 4 -22.5 16t-23.5 16t-20.5 14.5t-21 16t-18 14.5t-17.5 15.5t-13.5 15t-12.5 16.5q-30 50 -30 107
q0 32 12.5 62.5t38 58.5t72 45t108.5 17q88 0 159 -28q7 -68 22 -156l-51 -8q-16 84 -42 113t-91 29q-46 0 -81.5 -26t-35.5 -78q0 -48 27 -77.5t109 -85.5q7 -5 22.5 -15.5t21.5 -14.5t19 -12.5t18 -12.5t15 -11.5t15 -11.5t12.5 -10.5t12 -11.5t10 -10.5t9.5 -11.5
q41 -57 41 -127q0 -89 -66.5 -149.5t-186.5 -60.5q-86 0 -176 31q-9 81 -30 165z" />
    <glyph glyph-name="scaron" unicode="&#x161;" horiz-adv-x="454" 
d="M91 734l128 -71h2l127 71l22 -35l-148 -123h-4l-149 123zM26 142l37 8q18 -68 51 -95t85 -27q55 0 80.5 27.5t25.5 59.5q0 31 -20 52q-6 7 -17 14.5t-21 13t-29.5 16t-34.5 18.5q-10 6 -30.5 18t-31 18t-24 16.5t-23.5 21.5q-33 40 -33 86q0 54 49 91.5t146 37.5
q78 0 140 -23q9 -68 19 -114l-37 -7q-12 59 -37.5 81.5t-73.5 22.5q-35 0 -65 -16.5t-30 -49.5q0 -35 42 -64q13 -7 52 -26t53 -28q125 -65 125 -153q0 -66 -56.5 -110t-155.5 -44q-92 0 -164 31q-7 54 -22 124z" />
    <glyph glyph-name="Utilde" unicode="&#x168;" horiz-adv-x="698" 
d="M219 812h-47q3 52 30 83t71 31q46 0 86 -22l24 -13q29 -16 51 -16q34 0 45 48h47q-3 -52 -30 -83t-71 -31q-46 0 -84 21l-23 13q-32 16 -54 16q-34 0 -45 -47zM542 254v369q0 56 -11.5 69t-59.5 13v41h196v-41q-47 0 -58 -13.5t-11 -68.5v-379q0 -133 -60 -196t-175 -63
q-129 0 -189 53q-38 33 -53.5 83t-15.5 131v371q0 56 -11.5 69t-61.5 13v41h267v-41q-49 0 -60 -12.5t-11 -69.5v-367q0 -116 42 -165q36 -47 115 -47q81 0 119 52q38 48 38 158z" />
    <glyph glyph-name="utilde" unicode="&#x169;" horiz-adv-x="600" 
d="M364 596h-1q-33 0 -73 23l-23 14q-22 14 -42 14q-30 0 -36 -48h-45q1 53 24.5 83.5t68.5 30.5q37 0 74 -23l22 -12q25 -16 42 -16q31 0 36 48h46q-1 -51 -24.5 -82.5t-68.5 -31.5zM575 34v-32q-52 0 -77 -2q-42 -3 -81 -13l-11 6l-5 69h-3q-64 -75 -159 -75
q-72 0 -110 35q-49 43 -49 147v196q0 50 -8.5 61.5t-46.5 11.5v32q83 12 154 48l16 -7v-329q0 -76 22 -106q21 -32 65 -32q63 0 117 73v249q0 50 -8.5 61t-45.5 11v32q83 12 153 48l15 -7v-399q0 -53 9.5 -65.5t52.5 -12.5z" />
    <glyph glyph-name="Umacron" unicode="&#x16a;" horiz-adv-x="698" 
d="M189 829v62h323v-62h-323zM228 623v-367q0 -32 2.5 -56.5t11.5 -55.5t25 -51.5t46.5 -34.5t71.5 -14q43 0 74 16t46.5 37t24.5 53t10.5 54t1.5 50v369q0 56 -11.5 69t-59.5 13v41h196v-41q-47 0 -58 -13.5t-11 -68.5v-379q0 -133 -60 -196t-175 -63q-68 0 -116.5 15.5
t-75.5 39t-42.5 61t-19.5 71.5t-4 80v371q0 56 -11.5 69t-61.5 13v41h267v-41q-49 0 -60 -12.5t-11 -69.5z" />
    <glyph glyph-name="umacron" unicode="&#x16b;" horiz-adv-x="600" 
d="M165 621v60h270v-60h-270zM513 511v-399q0 -53 9.5 -65.5t52.5 -12.5v-32q-98 0 -158 -15l-11 6l-5 69h-3q-64 -75 -159 -75q-84 0 -121.5 46t-37.5 136v196q0 50 -8.5 61.5t-46.5 11.5v32q83 12 154 48l16 -7v-329q0 -24 1.5 -40.5t9 -42.5t27 -40.5t49.5 -14.5
q63 0 117 73v249q0 50 -8.5 61t-45.5 11v32q83 12 153 48z" />
    <glyph glyph-name="Uring" unicode="&#x16e;" horiz-adv-x="698" 
d="M352 967h1q42 0 72 -26t30 -64t-30 -63.5t-74 -25.5t-74.5 25.5t-30.5 63.5q0 39 31.5 64.5t74.5 25.5zM351 923h-1q-20 0 -34.5 -13.5t-14.5 -32.5t14.5 -32.5t36.5 -13.5t36 13t14 33q0 19 -14 32.5t-37 13.5zM542 254v369q0 56 -11.5 69t-59.5 13v41h196v-41
q-47 0 -58 -13.5t-11 -68.5v-379q0 -133 -60 -196t-175 -63q-129 0 -189 53q-38 33 -53.5 83t-15.5 131v371q0 56 -11.5 69t-61.5 13v41h267v-41q-49 0 -60 -12.5t-11 -69.5v-367q0 -116 42 -165q36 -47 115 -47q81 0 119 52q38 48 38 158z" />
    <glyph glyph-name="uring" unicode="&#x16f;" horiz-adv-x="600" 
d="M300 738h1q40 0 68 -26t28 -63q0 -38 -28 -64t-69 -26t-69.5 26t-28.5 64q0 37 28.5 63t69.5 26zM301 698h-1q-19 0 -33 -14.5t-14 -34.5t14 -35t34 -15q19 0 33.5 15t14.5 35t-14 34.5t-34 14.5zM575 34v-32q-52 0 -77 -2q-42 -3 -81 -13l-11 6l-5 69h-3
q-64 -75 -159 -75q-72 0 -110 35q-49 43 -49 147v196q0 50 -8.5 61.5t-46.5 11.5v32q83 12 154 48l16 -7v-329q0 -76 22 -106q21 -32 65 -32q63 0 117 73v249q0 50 -8.5 61t-45.5 11v32q83 12 153 48l15 -7v-399q0 -53 9.5 -65.5t52.5 -12.5z" />
    <glyph glyph-name="Ydieresis" unicode="&#x178;" horiz-adv-x="642" 
d="M233 925q25 0 41 -17t16 -40t-16.5 -40t-40.5 -17q-23 0 -40 17t-17 40q0 24 17 40.5t40 16.5zM459 925q24 0 40 -17t16 -40t-16.5 -40t-39.5 -17q-24 0 -40.5 17t-16.5 40q0 24 16.5 40.5t40.5 16.5zM267 123v203l-173 310q-25 45 -39.5 57t-42.5 12v41h254v-41
q-56 0 -56 -21q0 -12 18 -46l133 -246h3l125 244q18 36 18 50q0 19 -46 19v41h172v-41q-28 0 -41 -10.5t-33 -50.5l-170 -317v-204q0 -56 14.5 -69.5t75.5 -13.5v-40h-302v40q62 0 76 13.5t14 69.5z" />
    <glyph glyph-name="Zcaron" unicode="&#x17d;" horiz-adv-x="582" 
d="M290 885h2l163 58l21 -38l-184 -104h-3l-183 104l21 38zM19 28l378 669h-194q-55 0 -72 -18.5t-37 -102.5h-52l32 170h448l21 -30l-371 -666h213q58 0 77.5 20.5t40.5 107.5h52l-32 -178h-486z" />
    <glyph glyph-name="zcaron" unicode="&#x17e;" horiz-adv-x="466" 
d="M105 734l127 -71h2l127 71l23 -35l-149 -123h-4l-149 123zM79 367h-40l22 138h369l13 -18l-280 -445h162q37 0 52 19t30 84h39l-22 -145h-392l-12 19l285 444h-147q-39 0 -52.5 -18t-26.5 -78z" />
    <glyph glyph-name="florin" unicode="&#x192;" 
d="M371 421l-33 -289q-6 -51 -16.5 -87.5t-32 -70.5t-59 -51.5t-91.5 -17.5q-59 0 -97 33t-38 80q0 18 12 31.5t31 13.5q40 0 51 -56q14 -60 43 -60q61 0 83 167l32 307h-98l4 42h99l8 75q17 106 64.5 155t134.5 49q58 0 94.5 -33t36.5 -76q0 -21 -11 -34.5t-31 -13.5
q-21 0 -32.5 14.5t-20.5 53.5q-10 47 -40 47q-18 0 -31.5 -10.5t-21 -23.5t-13.5 -38t-8.5 -41.5t-6.5 -45.5l-8 -78h114l-5 -42h-113z" />
    <glyph glyph-name="uni01CD" unicode="&#x1cd;" horiz-adv-x="652" 
d="M329 885l162 58l23 -38l-185 -104h-2l-185 104l22 38l163 -58h2zM409 230h-237l-31 -113q-14 -49 -7 -63t48 -14v-40h-169v40q26 0 38.5 11.5t23.5 45.5l203 664h72l222 -650q15 -44 27.5 -57.5t39.5 -13.5v-40h-235v40q41 0 49 14.5t-5 51.5zM393 280l-106 328h-3
l-95 -328h204z" />
    <glyph glyph-name="uni01CE" unicode="&#x1ce;" horiz-adv-x="537" 
d="M268 663h2l128 71l22 -35l-149 -123h-4l-149 123l23 35zM457 349v-241q0 -73 32 -73q16 0 29 8l8 -34q-38 -15 -88 -15q-70 0 -89 56h-4q-63 -63 -158 -63q-61 0 -105 34q-46 37 -46 99q0 80 72 125q60 38 166 62l68 17v46q0 49 -17 76q-21 32 -70 32q-37 0 -67 -25
q-20 -18 -33 -54q-13 -34 -52 -34q-43 0 -43 41q0 23 16.5 45t44.5 37q58 30 142 30q110 0 155 -49q39 -39 39 -120zM342 94v191q-87 -26 -123 -51q-63 -37 -63 -97q0 -44 21 -68q23 -25 64 -25q53 0 101 50z" />
    <glyph glyph-name="uni01CF" unicode="&#x1cf;" horiz-adv-x="354" 
d="M180 885l162 58l23 -38l-185 -104h-2l-185 104l22 38l163 -58h2zM116 123v500q0 56 -13 69t-72 13v41h293v-41q-59 0 -72.5 -13t-13.5 -69v-500q0 -55 14 -69t72 -14v-40h-294v40q59 0 72.5 13.5t13.5 69.5z" />
    <glyph glyph-name="uni01D0" unicode="&#x1d0;" horiz-adv-x="300" 
d="M149 663h2l127 71l23 -35l-149 -123h-4l-149 123l23 35zM213 511v-398q0 -52 10 -65t54 -13v-35h-247v35q47 0 57.5 12.5t10.5 66.5v250q0 53 -9.5 63.5t-58.5 10.5v32q84 9 170 48z" />
    <glyph glyph-name="uni01D1" unicode="&#x1d1;" horiz-adv-x="728" 
d="M367 885l162 58l22 -38l-184 -104h-2l-185 104l22 38l163 -58h2zM363 -15h-1q-149 0 -229 91q-88 98 -88 297q0 208 101 309q82 79 217 79q137 0 219 -79q101 -101 101 -309q0 -198 -89 -297q-78 -91 -231 -91zM363 715h-1q-80 0 -131 -64q-59 -78 -59 -278
q0 -185 58 -274q49 -67 132 -67t134 67q58 89 58 274q0 198 -59 278q-51 64 -132 64z" />
    <glyph glyph-name="uni01D2" unicode="&#x1d2;" horiz-adv-x="570" 
d="M285 663h2l127 71l23 -35l-149 -123h-4l-149 123l23 35zM285 -13h-1q-106 0 -171 55q-75 67 -75 214q0 133 71 202q68 60 176 60q114 0 179 -63q68 -68 68 -199q0 -143 -68 -208q-65 -61 -179 -61zM284 478h-1q-54 0 -86 -43q-39 -55 -39 -182q0 -125 40 -183
q31 -42 86 -42t86 42q40 56 40 183t-39 182q-31 43 -87 43z" />
    <glyph glyph-name="uni01D3" unicode="&#x1d3;" horiz-adv-x="698" 
d="M351 885l163 58l22 -38l-184 -104h-3l-184 104l21 38l163 -58h2zM542 254v369q0 56 -11.5 69t-59.5 13v41h196v-41q-47 0 -58 -13.5t-11 -68.5v-379q0 -133 -60 -196t-175 -63q-129 0 -189 53q-38 33 -53.5 83t-15.5 131v371q0 56 -11.5 69t-61.5 13v41h267v-41
q-49 0 -60 -12.5t-11 -69.5v-367q0 -116 42 -165q36 -47 115 -47q81 0 119 52q38 48 38 158z" />
    <glyph glyph-name="uni01D4" unicode="&#x1d4;" horiz-adv-x="600" 
d="M299 663h2l127 71l23 -35l-149 -123h-4l-149 123l23 35zM575 34v-32q-52 0 -77 -2q-42 -3 -81 -13l-11 6l-5 69h-3q-64 -75 -159 -75q-72 0 -110 35q-49 43 -49 147v196q0 50 -8.5 61.5t-46.5 11.5v32q83 12 154 48l16 -7v-329q0 -76 22 -106q21 -32 65 -32q63 0 117 73
v249q0 50 -8.5 61t-45.5 11v32q83 12 153 48l15 -7v-399q0 -53 9.5 -65.5t52.5 -12.5z" />
    <glyph glyph-name="aeacute" unicode="&#x1fd;" horiz-adv-x="820" 
d="M392 60h-3q-80 -73 -199 -73q-65 0 -108 33q-49 34 -49 100q0 81 76 128q65 40 162 59l68 17v45q0 51 -16 74q-22 35 -70 35q-37 0 -68 -26q-16 -15 -31 -53q-15 -34 -52 -34q-21 0 -32 12t-11 31q0 48 62 81q54 29 139 29q54 0 95 -20t56 -62h2q25 37 66 59.5t88 22.5
q101 0 158 -67q59 -72 59 -193h-329q0 -106 31 -159q38 -66 113 -66q53 0 94 30q34 26 53 65l37 -18q-28 -51 -71 -83q-57 -40 -133 -40q-123 0 -187 73zM455 299h212q0 89 -28 137q-28 42 -74 42q-42 0 -75 -42q-32 -48 -35 -137zM153 137v-1q0 -43 23 -66q24 -26 68 -26
q34 0 67.5 15.5t54.5 38.5q-27 57 -27 141v46q-82 -23 -123 -51q-63 -37 -63 -97zM524 746l50 -73l-185 -107l-24 35z" />
    <glyph glyph-name="uni0237" unicode="&#x237;" horiz-adv-x="294" 
d="M102 25v340q0 52 -10 62.5t-60 10.5v32q91 10 171 48l13 -7v-469q0 -168 -44 -238q-45 -74 -146 -74q-65 0 -105 30q-40 31 -40 66q0 18 10.5 29t27.5 11q21 0 33 -11.5t24 -37.5q20 -46 51 -46q39 0 57 54q18 60 18 200z" />
  </font>
</defs>
</svg>
